<?xml version="1.0" standalone="no"?>
<!DOCTYPE svg PUBLIC "-//W3C//DTD SVG 20010904//EN"
 "http://www.w3.org/TR/2001/REC-SVG-20010904/DTD/svg10.dtd">
<svg version="1.0" xmlns="http://www.w3.org/2000/svg"
 width="374.000000pt" height="374.000000pt" viewBox="0 0 374.000000 374.000000"
 preserveAspectRatio="xMidYMid meet">
<metadata>
Created by potrace 1.11, written by Peter Selinger 2001-2013
</metadata>
<g transform="translate(0.000000,374.000000) scale(0.100000,-0.100000)"
fill="#000000" stroke="none">
<path d="M810 3356 c0 -2 8 -10 18 -17 15 -13 16 -12 3 4 -13 16 -21 21 -21
13z"/>
<path d="M2250 3356 c0 -2 8 -10 18 -17 15 -13 16 -12 3 4 -13 16 -21 21 -21
13z"/>
<path d="M494 3339 c-4 -7 -3 -10 3 -6 6 4 16 0 22 -7 14 -16 1 -28 -34 -33
-16 -2 -17 -1 -5 6 8 6 12 13 8 16 -3 4 -12 0 -19 -8 -11 -12 -16 -12 -27 0
-7 7 -18 13 -25 13 -6 0 -3 -6 7 -13 17 -12 16 -13 -13 -12 -17 1 -34 4 -37 8
-12 12 -24 8 -24 -7 0 -8 -5 -18 -12 -22 -7 -5 -9 -2 -3 7 4 8 -4 1 -18 -16
-15 -18 -22 -34 -17 -40 5 -6 5 -17 0 -25 -14 -21 -12 -32 3 -24 8 5 7 2 -2
-9 -11 -14 -17 -15 -30 -5 -14 11 -14 11 -4 -3 7 -9 10 -19 6 -22 -3 -4 -3 -7
1 -7 4 0 14 7 23 15 8 8 19 13 24 10 12 -8 11 -25 -2 -25 -5 0 -7 5 -3 12 4 7
3 8 -4 4 -6 -4 -8 -14 -5 -23 4 -9 2 -14 -3 -11 -5 4 -10 -4 -10 -16 -1 -13 4
-23 11 -23 7 0 10 8 8 18 -6 22 15 35 23 14 4 -9 16 -20 27 -24 20 -8 20 -8
-1 -13 -12 -4 -20 -2 -17 2 3 5 2 11 -3 13 -4 3 -12 -5 -18 -18 -10 -22 -9
-23 15 -18 14 2 27 6 30 8 2 2 12 0 22 -5 13 -8 20 -6 28 7 6 10 11 13 11 8 0
-6 -5 -16 -11 -22 -9 -9 -7 -12 10 -10 11 1 21 6 21 12 0 5 5 3 10 -5 5 -8 10
-19 10 -25 0 -5 -5 -3 -10 5 -5 8 -10 11 -10 5 0 -5 4 -16 9 -23 7 -11 9 -11
14 2 4 9 11 16 16 16 6 0 7 -7 4 -17 -4 -11 -3 -14 5 -9 7 4 12 16 12 27 0 11
-4 18 -8 15 -4 -2 -14 -1 -21 4 -9 5 -2 7 17 7 26 -2 31 -6 28 -22 -2 -11 1
-29 6 -40 8 -19 8 -19 5 1 -3 12 2 32 9 45 l14 24 -4 -28 c-3 -15 -1 -25 5
-22 5 4 9 13 9 21 0 8 5 14 10 14 7 0 7 -7 0 -21 -17 -30 -6 -34 14 -4 9 14
21 25 27 25 6 0 3 -7 -6 -16 -11 -11 -13 -20 -5 -28 5 -7 6 -16 2 -21 -4 -4 3
-3 15 4 12 6 25 20 28 31 6 18 8 18 21 5 9 -8 20 -13 25 -10 5 4 9 1 9 -4 0
-6 5 -11 11 -11 5 0 7 5 4 11 -4 6 -1 10 6 8 24 -3 39 1 38 9 -3 19 2 23 16
12 12 -10 16 -9 21 4 3 9 10 16 16 16 5 0 6 -6 1 -12 -10 -17 -12 -69 -2 -62
4 2 6 11 2 20 -8 22 19 13 35 -11 12 -19 13 -19 7 2 -5 18 -3 22 9 17 9 -3 16
-2 16 4 0 5 -13 8 -30 7 -34 -3 -36 0 -16 21 16 16 30 19 21 5 -3 -5 -1 -12 5
-16 5 -3 10 0 10 7 0 9 3 10 8 2 7 -11 16 -11 52 -3 8 2 14 -1 13 -6 -1 -6 8
-22 19 -35 11 -14 17 -19 13 -12 -12 24 -15 62 -5 62 6 0 8 -4 5 -10 -3 -5 -2
-10 4 -10 5 0 13 5 16 10 5 8 11 7 21 -1 11 -9 15 -8 20 5 3 9 10 16 15 16 5
0 4 -9 -3 -19 -7 -12 -22 -19 -37 -18 -14 1 -26 -4 -28 -13 -3 -9 -1 -11 4 -5
4 6 23 11 41 11 26 2 31 -1 22 -11 -8 -10 -8 -15 1 -21 7 -4 9 -3 5 4 -3 6 2
16 13 21 29 16 35 13 20 -6 -12 -16 -12 -17 2 -6 9 7 20 9 24 5 5 -4 5 -1 1 6
-5 8 -3 13 5 11 26 -3 40 1 35 10 -7 10 19 23 28 14 3 -4 6 -11 6 -17 0 -6 -5
-4 -11 4 -9 12 -10 12 -5 -3 3 -10 6 -21 6 -23 0 -2 5 -4 11 -4 5 0 7 5 4 10
-10 16 35 5 46 -11 8 -11 9 -10 7 6 -2 14 3 21 20 23 14 2 21 -1 20 -9 -2 -6
4 -14 12 -16 13 -4 13 -3 0 6 -8 6 -11 11 -6 11 5 0 1 9 -9 20 -10 11 -15 20
-12 20 3 0 15 -10 27 -22 17 -18 20 -19 20 -5 0 9 5 17 10 17 7 0 7 -6 0 -19
-17 -33 -11 -35 15 -7 14 15 29 25 34 22 5 -4 12 -1 14 4 3 6 4 5 3 -2 -2 -7
-9 -12 -15 -11 -6 2 -11 -2 -11 -8 0 -5 -5 -7 -12 -3 -7 4 -8 3 -4 -4 4 -6 14
-8 23 -5 10 4 14 2 10 -4 -3 -5 0 -10 8 -10 8 0 12 4 9 9 -7 11 18 42 36 46
12 2 11 -1 -2 -11 -23 -18 -21 -59 3 -47 9 5 20 6 24 2 3 -4 6 -2 4 3 -3 15
12 45 22 45 6 0 5 -9 -1 -21 -7 -11 -9 -23 -6 -27 3 -3 6 1 6 9 0 11 2 12 9 1
7 -11 9 -10 14 3 5 11 3 14 -6 9 -9 -6 -9 -5 0 8 7 8 9 18 5 23 -4 4 3 2 16
-4 17 -9 21 -18 16 -33 -4 -14 -2 -18 5 -14 6 4 11 17 12 29 l0 22 9 -22 c5
-13 12 -23 15 -23 4 0 3 5 0 10 -3 6 1 10 9 10 9 0 15 -5 13 -11 -1 -6 5 -14
13 -16 13 -4 13 -3 0 6 -8 6 -11 11 -6 11 5 0 3 7 -4 15 -7 8 -16 12 -21 9 -5
-3 -9 0 -9 5 0 18 18 13 40 -11 17 -18 20 -19 20 -5 0 9 5 17 10 17 7 0 7 -6
0 -19 -17 -33 -11 -35 15 -7 14 15 29 25 34 22 5 -4 12 -1 14 4 3 6 4 5 3 -2
-2 -7 -9 -12 -15 -11 -6 2 -11 -2 -11 -8 0 -5 -5 -7 -12 -3 -7 4 -8 3 -4 -4 4
-6 14 -8 23 -5 10 4 14 2 10 -4 -3 -5 0 -10 8 -10 8 0 12 4 9 9 -7 11 18 42
36 46 12 2 11 -1 -2 -11 -23 -18 -21 -59 3 -47 9 5 20 6 24 2 3 -4 6 -2 4 3
-3 15 12 45 22 45 6 0 5 -9 -1 -21 -7 -11 -9 -23 -6 -27 3 -3 6 1 6 9 0 11 2
12 9 1 7 -11 9 -10 14 3 5 11 3 14 -6 9 -9 -6 -9 -5 0 8 7 8 9 18 5 23 -4 4 3
2 16 -4 17 -9 21 -18 16 -33 -4 -14 -2 -18 5 -14 6 4 11 17 11 29 0 22 1 22
13 -2 11 -22 28 -31 26 -13 -1 4 -4 6 -8 5 -4 -1 -8 7 -8 18 -1 10 3 19 8 19
6 0 8 -4 4 -9 -3 -6 5 -15 17 -22 21 -11 22 -11 9 5 -12 14 -12 16 1 11 8 -3
21 -17 28 -30 7 -13 20 -27 28 -30 12 -5 12 -1 -3 15 -10 11 -13 20 -7 20 6 0
13 -4 16 -9 4 -5 14 -8 24 -6 9 2 20 4 25 4 4 1 7 6 7 12 0 5 -6 7 -12 3 -7
-4 -10 -4 -6 1 4 4 3 14 -4 22 -8 11 -7 12 5 7 8 -3 18 -12 21 -20 3 -8 11
-14 17 -14 8 0 7 5 -2 18 -11 14 -11 15 1 5 20 -18 30 -16 24 5 -5 15 -4 15 8
2 18 -21 37 -23 44 -5 4 8 10 15 16 15 5 0 7 -4 3 -9 -3 -6 3 -14 12 -20 10
-6 13 -11 7 -11 -5 0 -15 5 -22 12 -9 9 -12 9 -12 0 0 -6 -12 -10 -27 -9 -16
1 -28 -4 -30 -13 -3 -9 -1 -11 4 -5 11 13 75 16 67 3 -4 -6 2 -5 14 1 30 16
36 14 21 -6 -12 -16 -12 -17 2 -6 9 7 20 9 24 5 5 -4 5 -1 1 6 -5 8 -3 13 5
11 27 -3 40 1 34 11 -3 6 -2 10 4 10 5 0 13 -9 16 -20 3 -11 11 -20 16 -20 6
0 7 5 3 12 -5 7 -2 9 7 6 19 -7 79 17 79 32 0 5 5 10 11 10 8 0 8 -5 -1 -15
-8 -9 -8 -15 -2 -15 6 0 17 7 26 15 15 16 31 21 22 7 -7 -11 8 -33 25 -35 8
-2 20 -7 28 -11 9 -6 12 -5 8 1 -4 6 4 11 20 11 15 0 29 5 31 11 2 6 8 11 14
11 5 0 7 -9 3 -19 -3 -11 -1 -22 4 -26 7 -4 8 1 4 12 -6 16 -5 16 10 4 12 -9
21 -10 30 -3 21 18 87 19 87 1 0 -5 -4 -7 -10 -4 -5 3 -10 2 -10 -4 0 -5 9 -9
20 -8 13 1 18 7 16 22 -2 11 -1 14 1 7 3 -7 9 -9 15 -5 7 4 9 0 5 -10 -10 -26
2 -50 18 -37 10 8 18 5 30 -12 12 -15 15 -17 12 -5 -4 9 -2 17 3 17 5 0 10 6
13 13 2 6 3 4 2 -5 -2 -10 1 -18 7 -18 5 0 7 -4 4 -9 -7 -11 22 -23 36 -15 6
4 8 -2 4 -17 -3 -13 -3 -18 0 -11 7 15 34 16 34 1 0 -5 -6 -7 -12 -3 -9 5 -9
3 1 -9 7 -9 18 -13 25 -9 13 8 65 11 63 3 -1 -3 4 -15 10 -27 7 -12 8 -25 2
-35 -7 -12 -9 -12 -10 1 -1 8 0 22 1 30 1 8 -2 12 -6 7 -4 -4 -15 0 -24 8 -15
14 -19 14 -31 -2 -8 -9 -9 -14 -2 -10 6 4 14 3 18 -3 4 -6 10 -8 15 -5 14 9
21 -27 8 -44 -12 -14 -11 -14 5 -2 15 12 21 9 18 -11 -1 -9 27 -4 36 7 4 4 2
5 -6 0 -10 -6 -12 -4 -6 5 6 9 4 11 -6 5 -12 -8 -12 -6 0 8 7 9 19 17 25 17 6
0 5 -4 -3 -9 -9 -6 -10 -11 -2 -15 6 -4 9 -12 5 -17 -7 -13 25 -51 37 -43 5 3
9 3 9 0 0 -3 -10 -10 -21 -17 -16 -8 -20 -8 -14 1 7 11 -21 39 -39 40 -6 0 -1
-6 10 -14 10 -8 20 -19 20 -25 1 -6 2 -17 3 -23 1 -9 4 -8 11 2 5 8 10 11 10
6 0 -5 6 -4 13 2 10 8 13 7 14 -6 1 -9 3 -22 5 -29 2 -6 -1 -11 -7 -12 -5 0
-8 10 -7 22 2 12 0 18 -5 14 -4 -5 -8 -12 -8 -15 0 -4 -4 -13 -9 -20 -5 -8 -4
-18 3 -25 9 -9 11 -7 6 8 -6 17 -3 16 13 -5 15 -17 18 -29 11 -42 -6 -10 -5
-19 1 -23 6 -4 8 -11 4 -16 -3 -5 -10 -7 -15 -4 -5 4 -9 2 -9 -4 0 -5 9 -9 19
-8 13 1 18 7 16 19 -3 12 0 16 8 11 9 -5 9 -3 0 9 -7 8 -10 18 -6 21 3 4 0 13
-7 22 -7 8 -8 15 -2 15 11 0 21 -21 28 -57 2 -13 1 -23 -4 -23 -12 0 -11 -32
1 -48 8 -10 5 -12 -14 -9 -13 2 -18 2 -11 0 7 -3 9 -9 6 -15 -5 -7 -2 -8 6 -3
9 5 11 4 6 -3 -4 -7 -4 -18 1 -24 4 -7 8 -23 9 -35 1 -18 -2 -21 -13 -11 -10
8 -17 8 -26 -1 -9 -10 -8 -11 6 -6 9 4 17 3 17 -3 0 -6 -10 -14 -22 -18 l-21
-6 24 -14 c15 -8 18 -13 9 -14 -10 0 -11 -3 -3 -8 8 -5 8 -12 -2 -25 -10 -13
-14 -15 -18 -5 -4 10 -7 10 -18 -1 -12 -11 -12 -13 0 -6 10 6 12 2 6 -14 -5
-17 -3 -20 12 -15 17 5 17 5 0 -6 -10 -7 -27 -10 -38 -7 -10 3 -22 0 -26 -5
-3 -7 -1 -8 5 -4 7 4 12 2 12 -4 0 -6 6 -8 13 -4 7 4 8 3 4 -2 -5 -5 -19 -9
-30 -9 -18 0 -22 -6 -22 -32 0 -19 -8 -40 -19 -50 -10 -10 -15 -12 -11 -4 5 9
3 12 -6 9 -8 -3 -14 -10 -14 -16 0 -7 -4 -12 -8 -11 -5 0 -17 -9 -26 -20 -10
-11 -21 -18 -25 -14 -3 3 -6 1 -6 -6 0 -9 -5 -9 -21 0 -16 8 -24 8 -33 -1 -8
-8 -7 -10 5 -5 10 4 20 1 25 -6 4 -8 3 -10 -4 -5 -7 4 -12 2 -12 -4 0 -7 -7
-7 -22 1 -22 12 -22 11 -8 -6 9 -11 10 -16 3 -11 -7 4 -13 2 -13 -3 0 -6 -3
-10 -7 -9 -11 2 -67 -25 -75 -37 -4 -5 -8 -6 -8 -1 0 5 -7 3 -15 -4 -8 -6 -30
-12 -49 -13 -19 0 -33 -4 -31 -7 2 -3 -5 -6 -15 -6 -10 0 -17 3 -15 6 2 3 -5
6 -15 6 -12 0 -16 -4 -10 -11 6 -7 2 -11 -11 -12 -12 -1 -17 2 -13 10 4 7 3 8
-2 4 -5 -5 -9 -16 -10 -25 -1 -29 -16 -52 -28 -45 -6 4 -5 0 2 -9 11 -14 10
-18 -5 -28 -16 -10 -16 -11 4 -7 15 3 20 1 16 -9 -3 -8 -10 -11 -16 -7 -6 3
-7 1 -3 -5 3 -6 15 -9 26 -7 17 3 18 1 10 -15 -12 -22 -30 -35 -30 -21 0 5 6
12 13 14 9 4 9 6 0 6 -15 1 -26 -16 -18 -29 4 -7 13 -6 27 1 15 8 19 8 14 0
-4 -6 -2 -11 5 -11 7 0 9 -3 6 -7 -10 -9 13 -34 25 -27 5 3 16 -3 24 -15 12
-17 19 -19 34 -11 16 8 18 7 14 -4 -6 -15 -20 -16 -44 -1 -12 7 -13 6 -3 -7 7
-8 9 -19 5 -24 -4 -4 0 -3 9 4 18 14 30 6 22 -14 -3 -8 0 -14 7 -14 6 0 9 3 7
8 -8 12 9 45 24 48 8 1 21 5 30 9 10 3 20 2 24 -4 4 -7 -1 -8 -12 -4 -15 6
-16 4 -6 -9 7 -8 10 -18 6 -21 -3 -4 -1 -7 6 -7 7 0 9 -5 5 -12 -6 -10 -4 -10
8 0 10 8 19 9 22 3 4 -5 -2 -14 -11 -20 -10 -6 -13 -11 -6 -11 6 0 15 5 19 11
3 6 17 9 30 6 13 -2 21 0 18 4 -3 5 0 9 7 9 6 0 9 8 6 20 -3 12 -1 18 5 14 5
-3 8 -15 5 -25 -3 -11 -1 -19 5 -19 5 0 6 -4 3 -10 -3 -5 -2 -10 4 -10 5 0 13
10 16 21 6 17 9 19 16 8 5 -8 9 -10 9 -5 0 5 7 3 15 -4 12 -10 15 -10 15 1 1
9 4 8 11 -4 6 -9 14 -15 19 -12 5 3 11 1 15 -5 4 -6 12 -7 18 -3 9 5 9 3 1 -8
-13 -16 -15 -51 -3 -43 4 2 9 -1 11 -8 3 -8 7 -6 11 5 3 9 1 19 -5 23 -7 5 -8
2 -3 -6 6 -9 4 -11 -4 -6 -14 9 -7 19 14 22 9 1 12 -2 8 -9 -4 -7 0 -8 12 -3
17 6 18 5 3 -11 -29 -34 -28 -40 3 -35 17 3 29 10 29 19 0 13 -3 13 -15 3 -9
-7 -17 -11 -20 -9 -2 3 5 10 16 17 18 12 21 11 26 -8 5 -17 8 -19 15 -8 6 9 7
5 3 -11 -5 -16 -4 -21 4 -17 7 5 8 1 4 -10 -5 -12 -3 -15 6 -9 8 4 17 2 21 -5
11 -17 1 -42 -13 -33 -6 3 -7 1 -3 -5 4 -6 13 -9 21 -6 8 3 24 -1 37 -10 12
-9 17 -16 10 -16 -6 0 -12 -11 -12 -25 0 -14 4 -25 9 -25 6 0 8 8 6 18 -2 11
3 19 11 19 10 0 11 -4 3 -13 -7 -8 -7 -14 1 -19 13 -8 13 -25 -1 -25 -5 0 -7
5 -3 12 4 7 3 8 -4 4 -8 -5 -9 -13 -2 -25 5 -10 6 -22 2 -26 -4 -5 -1 -5 6 -1
7 4 10 12 7 17 -3 5 1 6 9 3 9 -3 15 -9 14 -12 0 -4 0 -14 1 -22 1 -13 2 -13
11 0 6 9 10 10 10 3 0 -6 -5 -15 -10 -18 -6 -4 -8 -11 -4 -16 3 -5 9 -7 13 -5
4 3 8 -1 8 -8 0 -7 -6 -13 -13 -13 -7 0 -10 5 -7 10 3 6 1 7 -5 3 -7 -4 -10 0
-7 12 2 10 -1 25 -6 33 -6 10 -8 7 -6 -11 2 -14 -3 -31 -12 -38 -9 -8 -10 -11
-4 -7 17 8 47 -15 51 -39 2 -10 -1 -16 -5 -13 -5 3 -15 1 -23 -4 -12 -7 -11
-8 5 -6 11 1 25 6 31 9 6 4 11 1 11 -7 0 -8 -4 -12 -9 -9 -4 3 -8 1 -8 -5 0
-6 -8 -8 -17 -5 -14 5 -15 4 -4 -4 8 -6 20 -8 28 -5 7 3 13 0 13 -7 0 -6 -4
-8 -10 -5 -6 4 -10 -6 -10 -24 0 -16 6 -32 13 -34 8 -4 8 -6 -2 -6 -11 -1 -10
-5 5 -16 16 -13 17 -14 1 -9 -19 7 -21 -15 -2 -28 6 -5 5 -8 -3 -8 -7 0 -10
-5 -7 -10 10 -16 -2 -12 -21 8 -16 15 -17 15 -12 0 4 -9 4 -19 0 -21 -4 -2 -2
-2 5 -1 22 5 24 -15 3 -33 -11 -10 -20 -22 -20 -28 0 -5 5 -3 10 5 7 12 9 10
7 -7 0 -13 -7 -25 -14 -27 -7 -3 -10 -12 -7 -21 3 -8 1 -15 -6 -15 -6 0 -9 4
-5 9 3 6 -5 15 -17 21 -19 9 -21 9 -8 -2 21 -18 23 -36 5 -60 -11 -17 -12 -25
-2 -37 9 -11 9 -13 0 -8 -7 5 -17 -1 -23 -13 -14 -27 -70 -80 -83 -80 -6 0 10
19 34 41 27 26 39 43 31 46 -6 3 -10 9 -7 14 4 5 -1 6 -10 3 -14 -6 -14 -8 2
-20 17 -13 17 -13 1 -14 -10 0 -18 -5 -18 -11 0 -5 -4 -7 -10 -4 -6 3 -7 -1
-4 -9 6 -16 -10 -23 -19 -8 -2 4 -2 1 -1 -5 2 -7 -1 -13 -6 -13 -6 0 -10 -9
-10 -21 0 -13 4 -18 12 -13 6 4 8 3 5 -4 -8 -11 -25 -11 -44 1 -6 4 -18 0 -27
-8 -8 -9 -18 -15 -21 -15 -3 1 -11 -1 -18 -4 -6 -2 -2 -4 10 -2 11 1 28 8 37
15 9 7 16 9 16 4 0 -5 -14 -17 -30 -27 -23 -13 -34 -15 -44 -7 -16 14 -42 -12
-30 -30 4 -7 3 -9 -4 -5 -5 3 -12 3 -15 -1 -2 -5 -2 -2 0 6 3 11 -2 10 -17 -4
-11 -10 -20 -13 -20 -7 0 6 12 20 28 32 25 20 25 20 2 8 -14 -7 -29 -11 -33
-10 -5 1 -6 -2 -2 -8 3 -5 2 -10 -4 -10 -6 0 -8 -6 -5 -14 3 -8 0 -17 -7 -22
-8 -4 -10 -3 -5 4 4 7 2 12 -4 12 -6 0 -8 6 -5 13 4 6 -3 1 -14 -13 -22 -27
-27 -21 -10 13 9 20 9 21 -4 4 -11 -14 -16 -15 -21 -5 -3 7 -3 2 0 -12 l5 -25
-20 25 c-19 23 -20 23 -15 4 3 -12 1 -25 -5 -28 -6 -4 -9 -1 -6 6 6 15 -39 18
-52 3 -5 -4 -2 -5 6 0 8 5 12 4 8 -2 -7 -11 -93 -11 -104 1 -4 5 -3 6 4 3 13
-8 12 18 -2 30 -4 4 -6 3 -2 -2 3 -6 -1 -19 -9 -30 -8 -10 -14 -13 -14 -6 0 7
-5 9 -12 4 -18 -11 -468 -11 -468 1 0 5 -5 4 -12 -1 -11 -8 -172 -10 -188 -3
-3 1 -8 2 -12 1 -5 0 -8 3 -8 9 0 14 13 13 28 -2 8 -8 12 -8 12 -1 0 20 -34
25 -47 7 -15 -21 -17 -11 -4 14 7 13 4 25 -8 41 -13 17 -18 19 -18 7 0 -9 5
-16 11 -16 6 0 3 -5 -7 -11 -14 -8 -22 -8 -30 1 -9 8 -8 10 6 4 22 -8 20 15
-3 33 -10 9 -11 12 -2 13 14 0 12 21 -3 32 -6 5 -5 8 4 8 11 0 11 3 0 17 -10
11 -10 14 -1 9 6 -4 12 -3 12 1 0 5 -6 15 -12 23 -11 12 -10 12 5 1 9 -7 17
-10 17 -6 0 5 -8 17 -17 28 -18 19 -17 20 6 7 15 -7 21 -8 17 -1 -4 6 0 11 11
12 16 0 16 1 -2 8 -19 8 -19 8 0 19 11 6 14 12 7 12 -7 0 -10 5 -6 12 5 7 3 8
-6 3 -10 -6 -12 -4 -7 9 4 10 3 15 -3 11 -5 -3 -14 4 -20 15 -6 11 -7 20 -2
20 5 0 9 7 9 15 0 10 -6 14 -16 10 -12 -4 -11 -2 2 9 12 9 15 16 7 21 -8 5 -8
11 1 21 9 11 8 14 -2 14 -11 0 -11 2 1 10 13 9 13 11 0 21 -12 8 -9 9 10 3 14
-3 22 -3 18 1 -4 5 0 14 10 22 16 12 15 13 -3 7 -16 -6 -18 -5 -7 7 6 7 12 18
12 23 0 8 -3 8 -8 0 -4 -6 -13 -3 -25 9 -18 18 -18 19 2 12 16 -5 19 -2 16 14
-2 12 0 21 6 21 5 0 9 5 9 11 0 5 -4 8 -9 4 -5 -3 -9 8 -9 24 1 17 5 28 11 24
5 -3 1 7 -9 22 -10 15 -18 40 -19 56 -1 16 -4 32 -8 35 -18 19 -4 22 15 4 12
-11 27 -20 32 -19 6 0 5 3 -2 6 -6 2 -10 9 -7 13 3 5 -3 15 -13 22 -27 19 -34
35 -17 41 9 4 12 1 8 -9 -3 -7 -1 -14 5 -14 6 0 8 13 5 31 -3 20 0 35 9 40 10
7 10 9 1 9 -7 0 -13 4 -13 10 0 5 8 7 18 4 13 -5 14 -4 3 4 -8 6 -21 8 -30 5
-13 -5 -14 -3 -3 8 18 20 15 33 -5 18 -15 -11 -16 -11 -5 1 18 21 15 35 -5 19
-15 -13 -15 -12 -2 9 8 12 17 22 22 22 4 0 6 -4 2 -9 -3 -5 -1 -12 4 -15 5 -4
13 -1 17 5 3 6 1 15 -6 19 -11 7 -10 14 4 34 11 18 13 25 4 24 -7 -2 -13 7
-13 19 0 12 -5 26 -9 30 -5 4 -7 3 -3 -2 3 -6 -3 -11 -13 -12 -18 -2 -18 -1
-2 16 9 10 22 16 27 13 6 -3 7 -2 3 3 -4 4 0 14 10 22 9 7 13 13 7 12 -23 -3
-27 2 -14 18 12 14 12 16 0 8 -11 -6 -13 -4 -8 8 4 12 2 14 -11 10 -15 -6 -15
-5 -3 10 11 14 11 18 -2 23 -13 5 -14 9 -4 24 8 13 15 16 23 9 8 -7 15 -6 20
2 4 7 3 9 -4 5 -16 -10 -25 13 -12 29 7 8 9 15 4 15 -5 0 -18 -13 -29 -29 -11
-17 -21 -28 -23 -26 -2 2 4 15 13 29 15 23 14 30 -6 28 -3 -1 -6 5 -6 13 0 8
4 12 9 9 4 -3 11 1 14 10 3 8 11 14 17 12 7 -1 9 -1 5 1 -5 3 -8 11 -8 18 0 7
-7 16 -16 19 -8 3 -13 10 -10 15 4 5 0 12 -6 14 -10 4 -10 6 0 6 6 1 12 13 12
27 0 22 3 24 14 15 10 -8 16 -9 21 -1 4 6 3 9 -2 8 -4 -2 -9 2 -10 7 -2 6 1
10 6 10 5 0 13 4 18 9 4 5 3 6 -4 2 -17 -9 -27 12 -13 29 10 11 10 15 1 15 -7
0 -9 5 -5 12 4 7 3 8 -4 4 -6 -4 -9 -13 -5 -21 3 -8 0 -15 -6 -15 -6 0 -10 -3
-10 -7 3 -20 -2 -33 -12 -33 -8 0 -8 5 1 15 10 12 10 15 -1 15 -9 1 -8 4 4 11
9 6 15 14 12 20 -4 5 1 18 9 30 8 12 12 28 9 35 -3 8 1 14 8 14 8 0 5 6 -7 15
-18 14 -18 14 4 10 22 -4 22 -4 5 25 -14 24 -19 27 -32 17 -14 -10 -14 -10 -4
4 10 12 10 18 0 29 -6 8 2 6 18 -4 17 -10 24 -13 18 -5 -10 10 -9 17 5 33 17
21 17 21 -4 3 -21 -17 -21 -17 -19 8 2 14 -1 25 -6 25 -5 0 -9 5 -9 10 0 6 12
2 27 -7 15 -10 24 -12 19 -5 -4 7 -1 14 8 18 9 3 14 10 11 14 -7 11 20 31 36
28 8 -2 18 -7 22 -13 5 -6 7 -4 4 5 -3 9 2 25 10 35 13 19 14 18 8 -12 -4 -27
-2 -32 14 -30 11 0 17 5 15 9 -3 5 -9 6 -14 3 -4 -3 -5 5 -2 17 5 19 7 20 10
6 2 -10 8 -18 14 -18 5 0 8 7 4 15 -3 8 0 15 5 15 6 0 9 -9 6 -20 -6 -22 8
-37 18 -20 4 6 10 8 15 5 4 -3 14 3 21 13 13 15 12 16 -3 3 -12 -9 -18 -10
-18 -2 0 10 11 14 28 9 4 -2 6 -6 4 -10 -2 -8 13 -12 31 -9 4 0 7 -4 7 -10 0
-5 5 -7 10 -4 6 3 10 11 10 16 0 6 -6 7 -12 3 -9 -5 -9 -2 1 9 7 9 19 17 25
17 7 0 6 -3 -2 -9 -10 -6 -10 -10 2 -21 17 -13 11 -34 -6 -24 -7 4 -8 2 -4 -5
6 -9 11 -9 22 0 7 6 11 16 8 21 -3 5 0 9 7 7 26 -3 39 1 39 12 0 8 -6 7 -17
-2 -11 -10 -14 -10 -9 -1 4 6 3 12 -1 12 -5 0 -15 -6 -23 -12 -12 -11 -12 -10
-1 4 17 23 51 18 64 -9 10 -21 27 -23 27 -2 0 6 -4 8 -8 5 -4 -2 -9 5 -9 17
-2 19 0 20 10 7 7 -9 25 -15 44 -14 18 0 30 -2 28 -6 -3 -4 -16 -6 -30 -5 -30
4 -30 2 -8 -16 10 -8 14 -9 10 -2 -9 15 32 14 52 -1 9 -6 12 -7 9 -1 -3 6 3
18 12 28 17 18 18 18 17 0 -1 -10 -6 -22 -12 -26 -6 -5 -3 -7 7 -3 10 3 20 1
23 -4 4 -6 11 -10 17 -10 5 0 1 8 -11 18 -20 16 -21 18 -6 37 16 20 16 20 10
-2 -7 -25 13 -42 26 -22 7 12 10 12 18 1 6 -11 10 -10 15 4 3 9 9 14 12 11 4
-3 14 3 24 15 17 21 47 17 34 -4 -4 -6 -2 -8 4 -5 5 4 9 15 7 25 -1 9 4 28 13
42 13 22 13 23 0 13 -8 -7 -17 -10 -20 -7 -3 3 -5 -2 -4 -12 0 -9 -6 -19 -14
-21 -9 -3 -11 -1 -5 4 17 14 14 44 -4 41 -9 -2 -20 -7 -24 -13 -5 -6 -7 -4 -4
5 2 8 9 16 15 16 7 1 17 2 23 3 6 0 9 7 6 14 -3 8 0 14 7 14 7 0 13 -6 13 -14
0 -7 -5 -13 -10 -13 -6 0 -8 -3 -5 -6 9 -9 48 15 47 29 0 9 -2 9 -6 0 -2 -7
-10 -13 -16 -13 -5 0 -8 3 -4 6 3 3 1 18 -4 33 -9 25 -9 25 7 6 l17 -20 -8 20
c-4 11 -10 29 -13 40 -2 11 -10 26 -15 33 -8 10 -7 16 4 23 8 5 9 9 3 9 -5 0
-16 -6 -23 -12 -8 -8 -11 -8 -8 -2 4 7 -3 12 -18 13 -50 3 -56 5 -52 16 3 6
-5 11 -17 12 -11 0 -15 -1 -8 -4 20 -8 14 -18 -12 -18 -17 0 -21 3 -15 11 6 8
1 10 -17 8 -15 -1 -31 -9 -35 -16 -7 -10 -9 -10 -9 0 0 6 -5 12 -11 12 -5 0
-8 -4 -5 -8 3 -5 -1 -9 -9 -9 -8 0 -12 4 -9 9 8 13 -10 10 -25 -4 -11 -10 -13
-10 -7 0 4 6 2 12 -4 12 -6 0 -9 4 -6 8 3 5 -5 8 -17 7 -12 -1 -29 3 -37 9
-13 9 -13 8 -3 -4 8 -10 9 -21 3 -30 -6 -8 -10 -10 -10 -4 0 6 -11 16 -25 22
-21 10 -27 8 -40 -11 -8 -12 -15 -17 -15 -11 0 6 -11 16 -25 22 -21 10 -27 8
-40 -11 -8 -12 -15 -17 -15 -11 0 6 -11 16 -25 22 -20 9 -26 8 -37 -7 -11 -15
-15 -16 -25 -6 -6 7 -9 17 -5 21 4 5 0 3 -9 -4 -9 -6 -19 -9 -23 -5 -4 4 -4 1
-1 -8 4 -10 -1 -15 -17 -16 -18 -2 -20 0 -8 7 13 8 12 10 -2 10 -10 0 -18 -5
-18 -11 0 -6 -7 -4 -15 5 -15 15 -50 12 -40 -3 2 -4 -2 -8 -10 -8 -8 0 -12 4
-10 8 6 8 -25 22 -33 14 -3 -3 0 -5 6 -5 7 0 12 -5 12 -10 0 -6 -11 -8 -24 -6
-14 2 -40 -4 -59 -13 -31 -16 -35 -16 -30 -2 2 9 -2 5 -10 -9 -9 -14 -13 -28
-11 -32 3 -5 0 -8 -6 -8 -6 0 -8 -5 -4 -12 4 -6 3 -8 -3 -5 -6 4 -9 -11 -8
-36 2 -52 -4 -70 -21 -63 -17 7 -28 -10 -13 -20 9 -5 7 -11 -6 -21 -11 -7 -14
-13 -9 -13 6 0 11 -7 11 -15 0 -8 -4 -15 -8 -15 -10 0 -6 -24 5 -28 4 -2 11 0
14 4 4 4 1 4 -6 -1 -11 -6 -12 -3 -4 11 5 11 8 27 7 36 -2 11 2 15 12 11 11
-4 12 -8 3 -13 -9 -6 -9 -9 1 -13 10 -4 10 -6 2 -6 -7 -1 -13 -6 -13 -12 0 -5
6 -7 13 -3 9 6 8 3 -1 -8 -15 -18 -13 -59 3 -70 6 -5 5 -8 -3 -8 -7 0 -10 -5
-6 -12 4 -7 3 -8 -4 -4 -8 5 -12 -1 -12 -15 0 -19 -2 -20 -17 -8 -17 12 -17
12 -1 -6 16 -17 15 -19 -5 -37 -22 -19 -22 -19 5 -2 15 9 26 20 23 24 -3 4 3
14 13 21 15 12 16 12 6 -1 -6 -8 -10 -25 -9 -38 1 -12 -4 -27 -12 -33 -7 -6
-13 -16 -13 -21 0 -7 5 -6 13 1 11 8 13 5 12 -18 -1 -16 -7 -36 -14 -45 -7 -8
-10 -19 -7 -24 3 -5 -1 -18 -9 -28 -8 -10 -15 -23 -15 -28 0 -6 6 -2 13 8 12
16 17 17 33 7 15 -10 15 -11 2 -7 -10 3 -20 1 -23 -4 -4 -6 -1 -11 4 -11 6 -1
15 -2 20 -3 5 0 13 -5 18 -10 4 -5 3 -6 -3 -3 -7 4 -19 -4 -28 -18 -17 -27
-10 -33 14 -12 8 6 11 8 7 3 -4 -5 -2 -15 4 -22 8 -9 5 -12 -13 -10 -13 2 -30
-4 -37 -12 -12 -12 -11 -13 5 -8 10 3 26 1 34 -5 13 -9 12 -10 -2 -5 -10 3
-20 1 -23 -4 -4 -6 -1 -11 4 -11 26 -3 30 -4 36 -11 4 -4 -8 -5 -26 -3 -19 2
-28 1 -21 -2 18 -7 15 -23 -5 -23 -15 0 -15 -2 -4 -9 10 -7 19 -5 26 6 10 13
14 13 20 3 5 -8 4 -11 -2 -7 -6 4 -14 -5 -18 -21 -6 -25 -7 -26 -20 -8 -13 18
-14 18 -12 -2 0 -11 5 -18 10 -15 5 3 6 -5 2 -18 -6 -22 -5 -21 13 4 11 16 22
24 26 19 3 -6 0 -13 -6 -15 -10 -4 -9 -8 2 -17 13 -11 13 -11 0 -7 -8 2 -24
-7 -34 -21 -11 -14 -14 -22 -8 -18 7 4 12 2 12 -3 0 -6 5 -11 11 -11 5 0 8 4
5 8 -2 4 -1 14 5 22 5 8 9 11 10 5 0 -5 2 -18 4 -28 2 -9 -1 -15 -6 -11 -13 8
-11 -10 3 -24 9 -9 9 -12 -1 -12 -11 0 -11 -3 0 -17 10 -11 10 -14 2 -9 -16 9
-16 1 -2 -26 8 -15 8 -19 0 -14 -18 11 -13 -5 7 -21 15 -13 15 -13 -5 -4 -29
15 -33 14 -27 -4 4 -8 11 -12 17 -8 6 4 7 1 3 -6 -6 -9 -13 -8 -29 6 -22 18
-22 18 -4 -3 9 -11 14 -24 10 -27 -3 -4 -2 -7 3 -7 6 0 15 5 21 11 9 9 11 7 9
-7 -2 -12 -11 -19 -24 -19 -11 0 -24 -4 -28 -8 -5 -4 0 -5 10 -1 15 6 17 4 11
-6 -6 -10 -4 -12 8 -7 9 3 19 1 23 -5 4 -7 3 -8 -4 -4 -7 4 -12 2 -12 -3 0 -6
6 -11 13 -11 8 0 7 -4 -3 -10 -14 -9 -7 -15 14 -11 5 1 4 -5 -3 -13 -7 -9 -17
-14 -21 -11 -4 3 -11 -2 -14 -11 -5 -12 -1 -14 17 -10 12 3 16 3 9 0 -20 -9
-34 -42 -20 -50 7 -5 8 -3 3 6 -5 9 -4 11 3 6 8 -5 10 -2 6 8 -3 9 -1 16 4 16
6 0 9 -9 7 -20 -2 -11 0 -22 6 -25 5 -4 9 -11 9 -18 0 -6 -7 -2 -15 9 -14 18
-14 18 -16 -6 -3 -41 -6 -64 -14 -82 -4 -11 -3 -18 5 -18 6 0 9 4 6 8 -2 4 -1
14 4 21 9 15 30 6 30 -12 0 -8 -3 -8 -9 2 -5 8 -11 9 -15 3 -3 -6 -2 -13 3
-17 5 -3 9 -14 8 -25 -1 -10 -5 -16 -9 -14 -5 3 -7 -8 -6 -25 1 -17 7 -31 13
-31 6 0 7 -3 0 -8 -16 -11 -17 -34 -3 -45 10 -6 9 -8 -4 -4 -9 3 -19 -1 -22
-9 -8 -21 -8 -24 5 -24 5 0 8 4 5 8 -3 5 1 9 9 9 8 0 13 -3 10 -5 -3 -3 1 -12
8 -21 11 -14 10 -15 -7 -1 -18 14 -19 13 -13 -3 6 -15 4 -16 -14 -6 -13 6 -19
7 -15 1 3 -6 3 -12 -1 -15 -5 -2 -3 -2 4 -1 7 2 15 -1 18 -7 4 -5 12 -6 18 -3
7 4 9 4 5 -1 -4 -4 -2 -15 5 -24 11 -14 10 -15 -7 -1 -18 14 -19 13 -13 -3 4
-11 3 -16 -4 -12 -6 4 -8 13 -5 21 3 8 2 14 -3 14 -5 0 -11 -9 -14 -20 -3 -13
-1 -18 6 -13 6 4 8 0 4 -10 -3 -9 -1 -19 5 -23 6 -4 8 -3 5 3 -3 5 0 10 8 10
8 0 13 -3 10 -5 -3 -3 1 -12 8 -21 11 -14 10 -15 -7 -1 -18 14 -19 13 -12 -5
5 -14 0 -12 -19 9 -14 16 -25 24 -25 19 0 -6 7 -16 15 -23 8 -7 15 -20 15 -29
-1 -14 -3 -13 -15 3 -13 18 -14 18 -12 -2 0 -11 4 -19 8 -16 15 9 4 -47 -11
-57 -13 -9 -12 -10 2 -5 10 3 20 1 23 -4 3 -5 12 -7 19 -4 8 3 17 1 21 -5 4
-7 0 -8 -11 -4 -12 5 -15 3 -9 -6 6 -10 3 -11 -14 -2 -17 10 -20 9 -15 -4 6
-15 18 -20 39 -15 6 1 7 -2 3 -6 -4 -4 -2 -14 5 -23 9 -12 7 -11 -13 2 -13 9
-31 17 -40 16 -8 0 -5 -4 9 -10 20 -8 21 -12 10 -25 -11 -13 -10 -15 3 -12 9
1 17 -1 18 -7 1 -5 7 -17 13 -25 9 -10 5 -9 -12 3 -23 15 -25 15 -37 -1 -8 -9
-14 -21 -14 -26 0 -6 6 -1 14 10 13 16 17 17 28 5 8 -8 8 -11 1 -7 -6 3 -14 2
-18 -4 -6 -10 9 -15 30 -10 6 1 7 -2 3 -6 -4 -4 -3 -13 4 -21 6 -8 7 -13 2
-12 -21 4 -26 -2 -13 -18 10 -11 10 -14 2 -9 -7 4 -13 2 -13 -3 0 -6 -3 -10
-7 -10 -21 3 -29 -3 -30 -24 -2 -21 -1 -21 10 -2 13 22 42 31 52 15 3 -5 0 -7
-8 -4 -8 3 -20 -2 -27 -11 -12 -15 -11 -16 4 -13 20 3 32 -27 15 -38 -6 -3 -5
-12 3 -22 10 -12 10 -14 1 -8 -7 4 -13 3 -13 -3 0 -5 5 -12 10 -14 6 -3 5 -4
-2 -3 -15 3 -18 35 -6 52 15 20 -24 27 -41 7 -15 -16 -15 -16 2 -4 9 8 21 11
24 7 4 -4 1 -11 -7 -16 -8 -6 -10 -10 -5 -10 6 0 11 -9 11 -20 0 -11 -5 -20
-10 -20 -6 0 -1 -7 11 -15 13 -9 20 -22 17 -30 -4 -8 -1 -15 6 -15 6 0 8 5 4
11 -4 8 -1 8 14 0 14 -8 19 -17 15 -29 -6 -15 -5 -16 13 -2 18 14 18 14 2 -5
-13 -16 -14 -22 -3 -32 7 -6 16 -9 19 -5 4 3 4 -2 0 -13 -7 -18 -6 -19 11 -5
10 8 16 10 12 4 -4 -7 0 -17 7 -23 9 -8 17 -8 20 -2 3 5 1 12 -4 14 -6 3 -5 4
2 3 7 -2 13 -8 13 -13 0 -6 3 -14 7 -18 4 -4 4 -13 2 -20 -3 -7 -1 -16 5 -20
7 -4 8 0 5 10 -7 17 15 18 27 1 4 -4 15 -3 26 2 14 8 23 8 31 0 7 -7 12 -8 12
-2 0 5 4 3 9 -4 7 -11 9 -11 14 2 4 9 1 15 -5 13 -6 -1 -13 5 -15 13 -3 9 -1
11 4 5 13 -16 46 -18 40 -3 -2 7 -10 12 -16 10 -7 -1 -10 2 -6 8 3 6 11 8 16
5 13 -8 32 -46 22 -44 -19 3 -30 -2 -30 -14 0 -8 6 -14 13 -14 7 0 10 6 7 12
-6 18 36 13 47 -5 5 -8 10 -10 10 -4 0 5 -5 15 -12 22 -9 9 -4 11 22 7 18 -2
37 -10 41 -17 5 -7 9 -8 9 -3 0 6 9 11 21 12 16 1 18 -1 10 -11 -8 -9 -7 -13
4 -13 7 0 13 5 12 10 -1 6 8 10 21 10 34 -1 35 -2 23 -17 -8 -10 -9 -16 -1
-21 6 -4 9 -1 8 7 -2 7 3 12 11 10 12 -3 12 0 1 13 -7 8 -11 17 -8 20 7 8 62
8 79 1 10 -4 20 -2 25 5 4 7 3 10 -4 5 -6 -3 -14 -1 -18 6 -4 7 -4 10 1 6 4
-4 13 -1 19 8 10 13 14 12 34 -6 12 -11 22 -18 22 -16 0 3 11 1 25 -4 15 -6
26 -6 30 0 4 6 -2 10 -12 11 -11 0 -13 3 -5 6 7 3 19 0 27 -7 8 -7 20 -8 27
-4 20 13 48 15 48 5 0 -6 -9 -8 -20 -6 -13 3 -20 -2 -20 -12 0 -12 3 -13 13
-4 14 11 27 5 27 -11 0 -5 -4 -7 -9 -3 -5 3 -12 1 -15 -4 -4 -5 2 -8 11 -7 10
2 18 9 18 17 0 8 8 17 18 21 10 4 15 12 12 18 -4 6 -11 7 -17 4 -7 -4 -8 -2
-4 5 6 9 11 9 21 1 14 -11 10 -40 -5 -40 -10 0 -7 -26 4 -37 4 -4 7 -3 6 2 -5
21 0 36 9 30 5 -3 12 -1 16 5 4 6 14 4 29 -5 22 -15 36 -11 36 9 0 6 -4 4 -10
-4 -8 -12 -10 -12 -15 2 -4 10 -15 15 -26 13 -10 -2 -19 1 -19 7 0 5 7 8 15 4
8 -3 15 0 15 7 0 8 4 6 10 -3 5 -8 10 -11 10 -6 0 5 6 4 13 -3 10 -8 17 -7 26
2 7 7 14 8 19 2 10 -14 56 -20 48 -6 -4 7 -1 8 8 5 9 -3 16 -10 16 -16 0 -5
-4 -7 -8 -4 -4 2 -8 -4 -9 -14 -1 -11 3 -23 9 -26 6 -4 8 -3 5 3 -7 12 27 66
36 56 12 -11 8 -25 -5 -17 -7 4 -8 3 -4 -5 4 -6 11 -9 16 -6 5 3 11 -3 13 -12
2 -10 4 -3 3 14 0 18 -5 33 -10 33 -5 0 -7 2 -4 5 8 8 38 -6 38 -17 0 -5 -5
-6 -11 -2 -6 3 -4 -5 5 -18 9 -14 13 -28 9 -33 -5 -4 -3 -5 4 -1 7 4 9 14 6
23 -5 12 -3 14 8 8 11 -7 11 -5 -1 10 -14 17 -13 18 4 12 14 -6 17 -4 12 8 -3
9 -2 13 4 10 6 -3 10 0 10 7 0 8 3 9 8 3 6 -10 20 -11 40 -5 4 1 10 2 15 1 4
0 7 5 7 13 0 8 4 17 8 20 4 2 8 -4 8 -15 0 -17 -8 -23 -28 -20 -9 1 -31 -39
-25 -46 3 -2 8 5 12 17 5 17 10 19 21 9 7 -6 11 -16 7 -22 -3 -6 -1 -7 6 -3 9
6 9 11 -1 24 -11 13 -11 15 4 9 12 -4 16 -1 13 13 -2 10 3 24 10 30 11 9 13 7
9 -15 -3 -17 -1 -24 6 -20 5 3 10 15 10 25 0 10 4 22 10 25 5 3 10 1 10 -5 0
-6 5 -8 10 -5 6 4 8 10 5 15 -3 4 3 14 12 21 10 8 14 9 10 2 -4 -6 -3 -14 3
-18 5 -3 10 -1 10 4 0 6 7 11 15 11 8 0 15 -5 15 -11 0 -5 -4 -8 -9 -4 -5 3
-12 1 -16 -5 -4 -6 -11 -7 -17 -4 -7 5 -8 2 -3 -6 6 -9 4 -11 -5 -5 -9 6 -11
4 -5 -5 5 -9 4 -11 -3 -6 -7 4 -12 2 -12 -3 0 -16 14 -13 36 6 11 10 26 19 34
21 7 2 26 12 41 23 17 12 30 15 34 9 3 -5 12 -10 18 -10 7 0 4 5 -6 11 -9 6
-15 15 -11 21 4 6 10 5 15 -3 6 -10 9 -11 9 -1 0 6 5 12 11 12 5 0 7 -6 3 -12
-5 -9 -2 -8 9 1 19 15 16 24 -8 27 -8 1 -15 -3 -15 -9 0 -5 -3 -7 -6 -4 -4 4
-24 -7 -45 -24 -22 -17 -39 -26 -39 -21 0 5 7 13 16 16 14 5 14 9 3 23 -13 15
-12 15 7 5 17 -9 24 -9 34 3 6 8 8 20 4 27 -6 11 -5 11 8 0 12 -10 17 -10 27
1 6 8 7 17 3 21 -4 4 -2 7 3 6 6 -1 19 -2 30 -1 17 1 18 3 5 11 -9 6 -10 10
-3 10 25 0 22 -20 -4 -34 -24 -13 -22 -19 3 -15 4 0 11 -5 16 -13 7 -10 8 -8
4 5 -8 26 14 59 31 45 7 -6 14 -8 14 -4 1 3 3 11 4 16 1 6 3 13 4 18 1 4 6 0
12 -8 9 -13 10 -13 6 0 -2 8 0 23 5 33 7 14 13 15 31 7 21 -11 21 -10 3 4 -13
11 -23 13 -31 6 -9 -7 -17 -5 -26 7 -8 10 -9 14 -2 10 14 -8 37 26 25 38 -4 3
-2 6 3 5 24 -5 37 1 32 15 -4 8 -1 17 5 21 6 4 8 3 5 -3 -11 -17 42 -12 55 6
12 14 11 14 -4 2 -20 -15 -25 -2 -6 17 8 8 8 15 -3 28 -12 15 -12 17 0 9 11
-6 13 -4 8 8 -4 11 -2 14 9 10 12 -4 12 -8 2 -22 -11 -14 -11 -14 3 -4 9 7 18
10 22 7 3 -3 3 3 0 15 -3 11 -9 19 -13 16 -5 -3 -12 0 -16 7 -4 7 -4 10 1 6 4
-4 14 -3 21 3 8 7 14 6 20 -2 5 -8 3 -9 -7 -4 -11 7 -11 5 1 -11 8 -10 16 -21
17 -23 2 -3 1 6 -1 20 -2 13 -5 30 -5 37 -1 7 -6 10 -11 7 -6 -3 -10 -1 -10 4
0 6 5 11 11 11 5 0 7 4 4 10 -3 5 -1 10 4 10 6 0 10 3 10 8 -1 4 -1 15 0 25 1
21 18 23 18 2 0 -8 -5 -15 -10 -15 -6 0 -7 -3 -4 -6 3 -4 2 -14 -2 -23 -6 -11
-4 -23 6 -36 9 -12 13 -14 11 -5 -3 8 2 20 11 26 13 10 13 14 1 29 -19 23 -19
24 10 40 14 8 20 14 15 15 -6 0 -12 12 -13 27 -1 15 -6 29 -10 32 -14 10 -9
49 5 44 11 -4 11 -8 1 -21 -11 -13 -11 -14 0 -8 7 4 11 3 10 -4 -2 -7 5 -14
15 -15 17 -3 18 -2 2 15 -15 16 -15 19 2 35 16 17 16 17 -5 11 -17 -6 -21 -4
-16 8 3 9 11 13 18 9 6 -3 8 -3 4 2 -4 4 -3 15 4 22 9 11 9 16 0 22 -16 10
-10 47 11 71 9 11 12 22 7 25 -4 3 -11 -1 -13 -7 -4 -8 -8 -4 -12 9 -4 13 -12
20 -19 16 -6 -3 -8 -3 -4 2 4 4 2 15 -5 23 -10 13 -9 14 11 3 13 -7 26 -10 30
-7 3 3 1 6 -4 6 -5 0 -10 10 -11 21 -2 17 1 19 10 10 6 -6 15 -11 20 -11 5 0
-1 9 -14 19 -13 10 -32 17 -42 16 -9 -2 -15 0 -12 6 4 5 10 7 14 4 5 -2 17 5
27 18 10 12 12 16 4 10 -17 -15 -40 -17 -40 -3 0 5 3 9 8 9 21 -4 23 3 7 21
-10 11 -23 17 -29 13 -6 -4 -5 1 3 10 12 15 9 21 -10 19 -8 -1 -3 43 6 58 4 7
1 10 -8 8 -9 -2 -16 0 -16 5 -3 26 0 37 10 37 5 0 8 -4 4 -9 -3 -5 -1 -12 4
-15 5 -4 8 1 7 11 -2 9 -12 20 -24 24 -17 6 -20 5 -15 -8 4 -11 3 -14 -6 -9
-7 5 -10 15 -6 24 4 10 -5 25 -26 43 -22 19 -28 29 -19 34 8 5 11 4 7 -1 -3
-6 2 -15 12 -21 14 -9 18 -8 18 3 0 7 -4 11 -9 8 -13 -8 -10 10 5 25 10 11 9
12 -3 5 -22 -12 -49 -12 -47 0 1 6 -4 10 -11 8 -10 -2 -10 2 -2 17 14 28 13
36 -5 21 -11 -9 -15 -9 -15 -1 0 7 -5 9 -10 6 -6 -4 -9 -3 -8 2 1 4 -3 17 -9
28 -6 11 -9 28 -8 38 2 9 -1 15 -6 11 -5 -3 -9 2 -9 10 0 9 -5 16 -11 16 -7 0
-5 -9 5 -24 11 -18 13 -27 4 -32 -7 -4 -8 -3 -4 4 4 7 3 12 -2 12 -5 0 -12 10
-16 23 -5 19 -8 20 -17 7 -8 -12 -9 -9 -3 10 6 23 6 24 -11 10 -17 -14 -17
-13 -7 7 17 30 15 41 -3 17 -8 -10 -15 -14 -15 -7 0 6 -12 16 -27 21 -21 8
-23 11 -9 11 17 1 15 16 -2 16 -14 0 -32 17 -32 28 0 7 5 4 11 -6 10 -17 29
-15 29 4 0 6 -5 7 -12 3 -7 -4 -8 -3 -4 4 4 7 13 12 21 12 19 0 25 22 10 40
-8 10 -10 22 -4 35 9 19 9 19 5 -2 -2 -13 2 -24 11 -27 20 -8 23 -8 23 5 0 5
-4 8 -9 4 -6 -3 -9 4 -8 15 1 11 7 20 14 20 6 0 15 5 19 12 4 6 3 8 -3 5 -6
-4 -13 0 -16 8 -6 15 16 11 41 -8 9 -7 11 -5 6 8 -5 11 -3 16 2 12 6 -3 11 4
11 16 2 16 0 18 -7 8 -11 -19 -37 -22 -37 -5 0 10 4 11 14 3 15 -13 18 1 3 19
-7 8 -7 9 1 3 13 -10 39 -4 39 10 0 4 -8 6 -17 3 -15 -5 -16 -4 -3 5 14 10 7
16 -13 12 -5 -1 -6 3 -2 9 4 6 15 4 30 -6 14 -9 22 -21 18 -27 -3 -5 -1 -7 5
-4 12 8 10 32 -3 44 -4 5 -4 1 0 -7 5 -10 1 -8 -13 4 -25 21 -31 36 -7 16 8
-7 15 -11 16 -9 6 31 6 39 -2 39 -5 0 -1 8 9 18 9 11 21 17 26 14 4 -2 2 -8
-5 -13 -11 -7 -11 -9 1 -9 13 0 13 -1 0 -10 -8 -5 -11 -10 -6 -10 5 0 3 -6 -3
-14 -9 -10 -8 -15 2 -19 7 -3 14 3 15 14 4 48 5 49 25 43 17 -5 18 -4 6 9 -8
8 -17 13 -20 11 -4 -2 -10 3 -13 12 -4 11 -2 15 8 11 8 -3 17 1 20 9 3 9 10
12 16 9 7 -4 7 2 1 18 -6 14 -7 28 -3 32 4 4 2 5 -3 3 -6 -1 -11 2 -12 7 -1 6
4 9 12 7 7 -1 17 3 21 9 4 8 3 9 -4 5 -7 -4 -12 -2 -12 3 0 6 -5 10 -11 9 -6
-2 -13 3 -14 10 -2 7 -1 8 2 2 3 -7 10 -7 21 2 9 7 13 8 10 3 -4 -6 3 -12 15
-12 15 -2 18 0 8 6 -7 5 -9 11 -5 13 5 3 3 3 -3 2 -7 -2 -13 1 -13 7 0 6 -5 7
-12 3 -7 -4 -8 -3 -4 5 4 6 12 9 17 6 5 -4 9 1 9 11 0 14 3 14 15 4 13 -11 14
-10 9 4 -8 20 -8 20 -42 0 -19 -11 -22 -12 -9 -1 20 17 21 24 5 30 -7 2 -4 3
7 1 15 -2 21 3 22 18 3 30 -15 60 -30 51 -9 -5 -9 -3 -1 8 6 8 10 22 9 32 -2
9 1 15 5 12 5 -3 8 4 7 15 -1 11 -5 20 -10 20 -4 0 -5 5 -2 10 5 8 12 7 23 -2
16 -12 16 -11 2 6 -14 18 -13 19 3 13 9 -4 17 -2 17 4 0 11 -11 10 -55 -6 -18
-6 -19 -6 -2 5 15 10 16 14 5 27 -12 14 -11 15 9 5 15 -8 24 -9 28 -2 4 6 1 9
-6 8 -6 -2 -14 3 -16 10 -3 7 1 10 10 6 8 -3 17 -1 21 4 6 10 -24 9 -42 -2 -7
-4 -16 -5 -19 -2 -4 3 -1 6 5 6 7 0 12 7 12 16 0 8 -4 13 -9 10 -5 -4 -8 2 -7
11 2 10 -2 21 -8 25 -7 5 -6 8 3 8 11 0 10 5 -4 20 -10 11 -13 20 -7 20 6 0
12 -5 14 -12 3 -7 7 -5 11 6 4 11 3 15 -4 10 -7 -4 -10 -1 -7 7 3 8 10 14 16
14 5 0 13 3 17 7 12 12 -22 3 -38 -10 -8 -7 -18 -9 -20 -5 -7 12 8 36 19 31 5
-1 10 6 11 17 2 15 1 16 -5 5 -4 -8 -16 -17 -26 -18 -15 -3 -18 -1 -10 10 13
17 15 56 3 63 -5 4 -6 -2 -2 -11 5 -13 3 -15 -8 -9 -11 6 -12 5 -1 -6 6 -7 12
-18 12 -24 0 -5 -7 -1 -15 9 -8 10 -12 23 -9 27 3 5 -2 9 -11 9 -9 0 -13 5
-10 10 3 6 0 10 -7 10 -8 1 -5 7 7 16 20 16 20 16 -1 10 -14 -4 -28 2 -45 20
-13 14 -23 27 -21 30 7 13 0 25 -14 20 -9 -3 -12 -2 -9 5 4 6 13 8 20 5 9 -3
11 2 7 16 -3 14 -7 16 -13 7 -10 -17 -56 6 -64 32 -3 10 -15 21 -26 24 -18 6
-21 14 -22 63 -1 21 -2 22 -13 8 -13 -18 -34 -22 -34 -6 0 6 -5 10 -11 10 -5
0 -7 -6 -3 -12 4 -7 -2 -5 -13 5 -11 9 -23 14 -28 10 -4 -5 -6 -1 -3 8 4 9 2
22 -4 30 -8 11 -9 10 -4 -3 3 -10 1 -18 -4 -18 -6 0 -10 5 -10 11 0 5 -4 8 -8
5 -5 -3 -18 3 -30 14 -14 14 -22 16 -25 7 -3 -7 -6 -4 -6 7 -1 14 -4 16 -14 7
-8 -6 -17 -7 -23 -1 -5 5 -22 12 -39 15 -16 3 -37 8 -45 10 -8 2 -19 4 -23 4
-5 1 -6 11 -2 24 l6 22 -13 -23 c-11 -18 -16 -20 -27 -10 -8 7 -11 8 -8 3 3
-7 -4 -11 -18 -11 -13 0 -22 3 -19 7 9 15 -26 17 -41 3 -8 -9 -15 -11 -15 -5
0 6 -5 11 -11 11 -5 0 -8 -4 -5 -8 3 -5 -1 -9 -9 -9 -8 0 -12 4 -9 9 8 13 -10
10 -25 -4 -11 -10 -13 -10 -7 0 4 6 2 12 -4 12 -6 0 -9 4 -6 8 11 17 -37 5
-50 -13 -8 -10 -14 -14 -14 -8 0 19 -29 23 -45 7 -8 -9 -15 -11 -15 -5 0 6 -5
11 -11 11 -5 0 -8 -4 -5 -8 3 -5 -1 -9 -9 -9 -8 0 -12 4 -9 9 3 4 -4 8 -15 8
-12 0 -21 -6 -21 -12 0 -9 -3 -10 -8 -2 -4 6 -18 17 -31 24 -19 10 -22 10 -16
-1 6 -9 3 -11 -9 -6 -10 4 -19 1 -22 -8 -4 -8 -10 -15 -16 -15 -5 0 -6 5 -3
10 3 6 1 10 -4 10 -6 0 -11 -6 -11 -12 -1 -7 -7 -2 -14 11 -13 23 -14 23 -20
5 -6 -19 -46 -29 -46 -12 0 4 6 8 14 8 8 0 18 4 21 10 4 6 -2 7 -17 1 -13 -4
-31 -7 -41 -5 -10 1 -21 -4 -24 -12 -3 -8 -9 -14 -15 -14 -5 0 -6 5 -3 10 3 6
1 10 -4 10 -6 0 -11 -6 -11 -12 -1 -7 -7 -2 -14 11 -13 23 -14 23 -20 5 -6
-19 -46 -29 -46 -12 0 4 6 8 14 8 8 0 18 4 21 10 4 6 -2 7 -17 1 -14 -5 -31
-5 -40 0 -12 7 -21 4 -31 -12 -8 -11 -16 -16 -18 -10 -6 18 -49 22 -56 6 -3
-8 -9 -15 -15 -15 -5 0 -6 5 -3 10 3 6 2 10 -4 10 -5 0 -12 -6 -14 -12 -4 -10
-6 -10 -6 0 -1 6 -6 12 -12 12 -5 0 -8 -4 -5 -8 3 -5 -1 -9 -9 -9 -8 0 -12 4
-9 9 8 13 -10 10 -25 -4 -11 -10 -13 -10 -7 0 4 6 2 12 -4 12 -6 0 -9 4 -6 8
11 17 -37 5 -50 -13 -8 -10 -14 -14 -14 -9 0 6 -11 16 -25 22 -21 10 -27 8
-39 -9 -7 -11 -15 -16 -17 -10 -6 18 -49 22 -56 6 -3 -8 -9 -15 -15 -15 -5 0
-6 5 -3 10 3 6 2 10 -4 10 -5 0 -12 -6 -14 -12 -4 -10 -6 -10 -6 0 -1 6 -6 12
-12 12 -5 0 -8 -4 -5 -8 3 -5 -1 -9 -9 -9 -8 0 -12 4 -9 9 8 13 -10 10 -25 -4
-11 -10 -13 -10 -7 0 4 6 2 12 -4 12 -6 0 -9 4 -6 8 10 17 -37 5 -49 -12 -7
-9 -15 -12 -17 -6 -5 17 -48 21 -55 5 -3 -8 -9 -15 -15 -15 -5 0 -6 5 -3 10 3
6 1 10 -4 10 -6 0 -11 -6 -11 -12 -1 -7 -7 -2 -14 11 -13 23 -14 23 -20 5 -6
-19 -46 -29 -46 -12 0 4 6 8 14 8 8 0 18 4 21 10 4 6 -2 7 -17 1 -13 -4 -31
-7 -41 -5 -10 1 -21 -4 -24 -12 -3 -8 -9 -14 -15 -14 -5 0 -6 5 -3 10 3 6 1
10 -4 10 -6 0 -11 -6 -11 -12 -1 -7 -7 -2 -14 11 -13 23 -14 23 -20 5 -6 -19
-46 -29 -46 -12 0 4 6 8 14 8 8 0 18 5 22 12 4 6 3 8 -3 5 -5 -3 -22 -8 -38
-11 -16 -3 -32 -11 -37 -18 -6 -10 -8 -10 -8 0 0 6 -5 12 -11 12 -5 0 -8 -4
-5 -8 3 -5 -1 -9 -9 -9 -8 0 -12 4 -9 9 3 4 -4 8 -15 8 -12 0 -21 -5 -21 -11
0 -6 -7 -3 -16 5 -8 9 -18 16 -22 17 -4 0 -15 2 -25 4 -9 2 -23 -6 -31 -17 -8
-10 -15 -15 -17 -9 -6 18 -49 22 -56 6 -3 -8 -9 -15 -15 -15 -5 0 -6 5 -3 10
3 6 2 10 -4 10 -5 0 -12 -6 -14 -12 -4 -10 -6 -10 -6 0 -1 6 -6 12 -12 12 -5
0 -8 -4 -5 -8 3 -5 -1 -9 -9 -9 -8 0 -12 4 -9 9 8 13 -10 10 -25 -4 -11 -10
-13 -10 -7 0 4 6 2 12 -4 12 -6 0 -9 4 -6 8 3 5 -5 8 -17 7 -12 -1 -29 4 -39
12 -12 11 -18 11 -24 2z m67 -33 c5 3 9 1 9 -5 0 -5 -9 -9 -20 -8 -21 1 -25 9
-13 21 4 4 9 2 11 -3 2 -6 8 -9 13 -5z m240 -6 c6 0 7 5 3 11 -4 8 0 8 15 0
28 -15 27 -16 -14 -17 -34 0 -42 5 -28 20 4 4 9 2 11 -3 2 -6 8 -11 13 -11z
m560 6 c5 3 9 1 9 -5 0 -5 -9 -9 -20 -8 -21 1 -25 9 -13 21 4 4 9 2 11 -3 2
-6 8 -9 13 -5z m239 -1 c5 3 11 2 14 -3 2 -4 -6 -8 -20 -8 -24 0 -30 7 -17 20
4 4 9 2 11 -3 2 -6 8 -9 12 -6z m81 1 c5 3 9 1 9 -5 0 -5 -9 -9 -20 -8 -21 1
-25 9 -13 21 4 4 9 2 11 -3 2 -6 8 -9 13 -5z m240 0 c5 3 9 1 9 -5 0 -5 -9 -9
-20 -8 -21 1 -25 9 -13 21 4 4 9 2 11 -3 2 -6 8 -9 13 -5z m560 0 c5 3 9 1 9
-5 0 -5 -9 -9 -20 -8 -21 1 -25 9 -13 21 4 4 9 2 11 -3 2 -6 8 -9 13 -5z
m-1511 -6 c0 -5 -5 -10 -11 -10 -5 0 -7 5 -4 10 3 6 8 10 11 10 2 0 4 -4 4
-10z m1304 2 c2 -4 -4 -8 -14 -8 -10 0 -16 4 -14 8 3 4 9 8 14 8 5 0 11 -4 14
-8z m140 0 c3 -5 -1 -9 -9 -9 -8 0 -12 4 -9 9 3 4 7 8 9 8 2 0 6 -4 9 -8z
m196 -2 c0 -5 -5 -10 -11 -10 -5 0 -7 5 -4 10 3 6 8 10 11 10 2 0 4 -4 4 -10z
m423 -145 c-3 -9 -8 -14 -10 -11 -3 3 -2 9 2 15 9 16 15 13 8 -4z m-2675 -50
c-3 -3 -9 2 -12 12 -6 14 -5 15 5 6 7 -7 10 -15 7 -18z m249 -38 c0 -8 -6 -14
-14 -14 -9 0 -10 4 -2 14 6 7 12 13 14 13 1 0 2 -6 2 -13z m363 9 c0 -2 -8
-10 -17 -17 -16 -13 -17 -12 -4 4 13 16 21 21 21 13z m320 0 c0 -2 -8 -10 -17
-17 -16 -13 -17 -12 -4 4 13 16 21 21 21 13z m-640 -10 c0 -2 -7 -7 -16 -10
-8 -3 -12 -2 -9 4 6 10 25 14 25 6z m51 -13 c13 -16 12 -17 -3 -4 -10 7 -18
15 -18 17 0 8 8 3 21 -13z m333 9 c3 -5 -1 -9 -9 -9 -8 0 -12 4 -9 9 3 4 7 8
9 8 2 0 6 -4 9 -8z m951 -14 c0 -6 6 -13 14 -16 9 -3 11 0 6 8 -6 9 -3 9 13 1
11 -6 22 -17 25 -25 6 -15 -9 -16 -30 -3 -7 5 -18 5 -23 2 -6 -4 -10 -3 -9 2
1 4 0 10 -1 13 -6 16 -7 41 -2 35 4 -4 7 -12 7 -17z m105 10 c0 -4 -4 -8 -9
-8 -6 0 -12 4 -15 8 -3 5 1 9 9 9 8 0 15 -4 15 -9z m64 4 c3 -5 -1 -9 -9 -9
-8 0 -12 4 -9 9 3 4 7 8 9 8 2 0 6 -4 9 -8z m350 0 c3 -5 -1 -9 -9 -9 -8 0
-12 4 -9 9 3 4 7 8 9 8 2 0 6 -4 9 -8z m-1855 -42 c-11 -30 -20 -36 -32 -24
-5 5 31 53 40 54 1 0 -3 -13 -8 -30z m456 21 c-3 -5 -1 -12 5 -16 5 -3 10 -1
10 6 0 7 3 10 6 6 3 -3 3 -11 -1 -17 -5 -8 -10 -8 -20 0 -10 8 -14 7 -18 -2
-2 -7 -8 -10 -12 -6 -4 4 -1 14 6 22 15 17 34 22 24 7z m365 -20 c-11 -22 -30
-28 -30 -10 0 5 4 8 9 4 5 -3 13 4 16 16 4 11 9 18 12 16 2 -3 0 -15 -7 -26z
m320 0 c-11 -22 -30 -28 -30 -10 0 5 4 8 9 4 5 -3 13 4 16 16 4 11 9 18 12 16
2 -3 0 -15 -7 -26z m455 0 c-6 -6 -17 -4 -29 5 -11 8 -15 14 -10 14 6 0 16 -6
23 -12 12 -11 13 -9 7 7 -6 16 -5 18 5 8 8 -8 9 -16 4 -22z m398 -12 c-13 -13
-33 -4 -32 14 0 9 2 9 6 0 2 -7 9 -13 14 -13 6 0 5 10 -2 23 -11 21 -11 21 7
5 13 -13 15 -21 7 -29z m43 23 c-10 -2 -22 0 -28 6 -6 6 0 7 19 4 21 -5 23 -7
9 -10z m-1939 -7 c0 -8 -4 -12 -9 -9 -4 3 -8 9 -8 15 0 5 4 9 8 9 5 0 9 -7 9
-15z m480 0 c0 -8 -4 -12 -9 -9 -4 3 -8 9 -8 15 0 5 4 9 8 9 5 0 9 -7 9 -15z
m31 1 c-7 -8 -15 -12 -17 -11 -5 6 10 25 20 25 5 0 4 -6 -3 -14z m1089 -1 c0
-8 -4 -12 -9 -9 -4 3 -8 9 -8 15 0 5 4 9 8 9 5 0 9 -7 9 -15z m43 11 c0 -2 -7
-7 -16 -10 -8 -3 -12 -2 -9 4 6 10 25 14 25 6z m112 -3 c-6 -2 -9 -10 -6 -15
4 -7 2 -8 -5 -4 -13 9 -5 26 12 25 9 0 8 -2 -1 -6z m56 -2 c11 -7 10 -9 -3
-14 -9 -4 -13 -3 -10 3 9 14 -8 12 -25 -2 -12 -11 -12 -10 -1 5 15 19 20 20
39 8z m172 -1 c0 -5 -5 -10 -11 -10 -5 0 -7 5 -4 10 3 6 8 10 11 10 2 0 4 -4
4 -10z m-2030 -10 c0 -5 -2 -10 -4 -10 -3 0 -8 5 -11 10 -3 6 -1 10 4 10 6 0
11 -4 11 -10z m2105 -29 c-3 -5 -1 -12 5 -16 5 -3 10 2 10 11 0 10 3 15 6 11
4 -3 4 -14 0 -23 -5 -13 -10 -14 -18 -6 -6 6 -17 8 -24 5 -8 -3 -14 0 -14 5 0
6 8 13 18 15 9 3 18 5 20 6 2 0 1 -3 -3 -8z m75 -31 c0 13 1 13 10 0 6 -9 6
-18 -1 -25 -10 -10 -29 9 -29 30 0 6 5 3 10 -5 9 -13 10 -13 10 0z m45 -21
c-4 -5 1 -12 9 -15 18 -7 21 -30 6 -39 -6 -3 -7 1 -4 9 4 9 0 18 -9 22 -9 3
-15 14 -14 24 1 10 5 16 9 14 5 -3 6 -10 3 -15z m-925 -194 c5 3 11 2 14 -3 2
-4 -6 -8 -20 -8 -24 0 -30 7 -17 20 4 4 9 2 11 -3 2 -6 8 -9 12 -6z m80 0 c5
3 11 2 14 -3 2 -4 -6 -8 -20 -8 -24 0 -30 7 -17 20 4 4 9 2 11 -3 2 -6 8 -9
12 -6z m80 0 c5 3 11 2 14 -3 2 -4 -6 -8 -20 -8 -24 0 -30 7 -17 20 4 4 9 2
11 -3 2 -6 8 -9 12 -6z m81 1 c5 3 9 1 9 -5 0 -5 -9 -9 -20 -8 -21 1 -25 9
-13 21 4 4 9 2 11 -3 2 -6 8 -9 13 -5z m129 -6 c0 -5 -5 -10 -11 -10 -5 0 -7
5 -4 10 3 6 8 10 11 10 2 0 4 -4 4 -10z m-760 -221 c0 -5 -5 -9 -12 -9 -6 0
-8 3 -5 7 4 3 1 13 -6 22 -11 14 -10 14 6 2 9 -7 17 -17 17 -22z m895 1 c-1
-11 -7 -26 -15 -33 -10 -9 -11 -9 -6 1 4 6 3 12 -2 12 -6 0 -13 7 -16 16 -5
14 -4 15 8 5 11 -9 15 -8 20 4 8 21 13 19 11 -5z m-65 -15 c-7 -9 -10 -19 -6
-22 4 -4 11 -1 15 6 6 9 11 10 15 2 9 -14 -2 -33 -15 -25 -5 3 -18 0 -27 -8
-15 -11 -15 -11 -5 3 7 9 10 19 6 22 -6 6 14 37 24 37 3 0 0 -7 -7 -15z m-559
-22 c-12 -20 -14 -14 -5 12 4 9 9 14 11 11 3 -2 0 -13 -6 -23z m133 19 c3 -5
-1 -9 -9 -9 -8 0 -12 4 -9 9 3 4 7 8 9 8 2 0 6 -4 9 -8z m150 0 c3 -5 -1 -9
-9 -9 -8 0 -12 4 -9 9 3 4 7 8 9 8 2 0 6 -4 9 -8z m171 -2 c3 -6 -1 -7 -9 -4
-10 4 -16 1 -16 -7 0 -7 -3 -10 -6 -6 -7 7 4 27 16 27 5 0 12 -4 15 -10z
m-395 -16 c0 -8 -19 -13 -24 -6 -3 5 1 9 9 9 8 0 15 -2 15 -3z m1406 -17 c1
-9 -2 -17 -8 -17 -6 0 -8 6 -5 14 3 8 2 17 -4 20 -5 2 -4 3 2 2 7 -1 13 -10
15 -19z m-1242 -2 c-4 -8 -8 -15 -10 -15 -2 0 -4 7 -4 15 0 8 4 15 10 15 5 0
7 -7 4 -15z m240 0 c-4 -8 -8 -15 -10 -15 -2 0 -4 7 -4 15 0 8 4 15 10 15 5 0
7 -7 4 -15z m-503 -22 c-12 -20 -14 -14 -5 12 4 9 9 14 11 11 3 -2 0 -13 -6
-23z m74 17 c3 -6 -1 -7 -9 -4 -18 7 -21 14 -7 14 6 0 13 -4 16 -10z m106 -13
c-10 -9 -11 -8 -5 6 3 10 9 15 12 12 3 -3 0 -11 -7 -18z m-156 -17 c-17 -33
-21 -35 -31 -18 -4 7 -3 8 4 4 7 -4 12 -1 12 6 0 12 19 38 27 38 2 0 -3 -13
-12 -30z m-25 -160 c0 -5 -7 -7 -15 -4 -8 4 -12 10 -9 15 6 11 24 2 24 -11z
m1478 -7 c-2 -9 -13 -17 -25 -18 -12 -1 -20 2 -17 7 4 5 12 7 20 4 8 -3 14 1
14 9 0 8 3 15 6 15 3 0 4 -8 2 -17z m-1496 -30 c-9 -3 -10 -9 -3 -17 7 -8 4
-12 -12 -13 -17 -2 -19 0 -7 7 13 9 13 10 0 10 -13 0 -13 1 0 10 8 5 20 9 25
9 6 0 4 -3 -3 -6z m1219 -5 c0 -7 2 -21 4 -31 2 -9 -1 -15 -6 -11 -5 3 -7 10
-4 15 4 5 2 9 -3 9 -5 0 -9 7 -9 15 0 18 17 20 18 3z m-1221 -42 c0 -2 -7 -7
-16 -10 -8 -3 -12 -2 -9 4 6 10 25 14 25 6z m-223 -36 c1 -11 -2 -20 -7 -20
-6 0 -7 17 -1 38 3 8 7 -1 8 -18z m1558 -130 c3 -5 1 -10 -4 -10 -6 0 -11 5
-11 10 0 6 2 10 4 10 3 0 8 -4 11 -10z m-1340 -59 c-3 -6 -11 -11 -16 -11 -5
0 -4 6 3 14 14 16 24 13 13 -3z m1295 3 c0 -8 -19 -13 -24 -6 -3 5 1 9 9 9 8
0 15 -2 15 -3z m14 -41 c-23 -17 -45 -17 -22 1 10 7 15 16 11 20 -4 4 1 4 11
0 18 -7 18 -8 0 -21z m-544 -113 c6 -11 8 -20 6 -20 -3 0 -10 9 -16 20 -6 11
-8 20 -6 20 3 0 10 -9 16 -20z m-761 -51 c-22 -13 -31 -11 -17 5 7 8 17 12 22
9 4 -3 2 -9 -5 -14z m845 -1 c-3 -4 -11 -5 -19 -1 -21 7 -19 12 4 10 11 0 18
-5 15 -9z m-834 -18 c0 -5 -7 -10 -16 -10 -9 0 -12 -5 -8 -12 5 -7 3 -8 -6 -3
-10 6 -9 11 5 22 22 16 25 16 25 3z m995 -40 c8 -13 -34 -23 -49 -11 -7 6 -16
8 -19 4 -4 -3 -7 -2 -7 4 0 12 67 16 75 3z m-1009 -39 c-3 -5 1 -11 9 -15 19
-7 9 -34 -19 -47 -18 -9 -19 -8 -6 3 17 14 20 32 8 44 -11 11 -10 24 3 24 5 0
8 -4 5 -9z m1378 -159 c3 -5 -1 -9 -9 -9 -8 0 -12 4 -9 9 3 4 7 8 9 8 2 0 6
-4 9 -8z m-1370 -23 c-3 -5 -10 -7 -15 -3 -5 3 -7 10 -3 15 3 5 10 7 15 3 5
-3 7 -10 3 -15z m-7 -25 c-3 -3 -12 -4 -19 -1 -8 3 -5 6 6 6 11 1 17 -2 13 -5z
m1638 -94 c3 -6 -1 -7 -9 -4 -18 7 -21 14 -7 14 6 0 13 -4 16 -10z m11 -79 c0
-16 -3 -17 -14 -9 -12 10 -7 19 13 28 1 0 1 -9 1 -19z m-1642 -22 c-3 -5 -11
-9 -17 -8 -8 0 -8 2 1 6 10 4 10 8 0 21 -12 15 -11 16 4 3 10 -7 15 -17 12
-22z m1646 -64 c10 -12 10 -19 2 -27 -11 -11 -14 -6 -11 18 0 4 -5 11 -13 15
-8 5 -9 9 -2 9 6 0 17 -7 24 -15z m-1644 -88 c1 -9 -2 -17 -8 -17 -6 0 -8 6
-5 14 3 8 2 17 -4 20 -5 2 -4 3 2 2 7 -1 13 -10 15 -19z m1644 -2 c7 -8 10
-15 6 -15 -3 0 -8 0 -11 0 -3 0 -5 3 -4 6 0 4 -5 11 -13 15 -8 5 -9 9 -2 9 6
0 17 -7 24 -15z m-25 -163 c2 -12 -1 -22 -6 -22 -6 0 -9 6 -6 13 2 6 0 21 -6
32 -7 15 -7 17 2 9 6 -6 13 -20 16 -32z m-1838 21 c-4 -3 -1 -13 6 -21 8 -11
8 -14 0 -9 -17 10 -28 -13 -12 -24 14 -8 13 -9 -18 -9 -4 0 -7 8 -7 18 1 26
15 52 27 52 6 0 7 -3 4 -7z m223 -98 c-6 -7 -6 -16 -2 -21 4 -4 0 -3 -9 4 -9
6 -20 8 -25 4 -4 -4 -3 0 4 9 7 9 9 24 6 34 -7 16 -6 16 14 -1 14 -12 18 -22
12 -29z m1363 0 c-3 -9 -8 -14 -10 -11 -3 3 -2 9 2 15 9 16 15 13 8 -4z m247
-4 c0 -5 -7 -11 -14 -14 -10 -4 -13 -1 -9 9 6 15 23 19 23 5z m-119 -138 c-12
-20 -14 -14 -5 12 4 9 9 14 11 11 3 -2 0 -13 -6 -23z m-381 -53 c0 -5 -5 -10
-11 -10 -5 0 -7 5 -4 10 3 6 8 10 11 10 2 0 4 -4 4 -10z m-1092 -30 c-7 -10
-14 -17 -17 -15 -4 4 18 35 25 35 2 0 -1 -9 -8 -20z m1380 -44 c11 -6 10 -11
-2 -25 -9 -10 -13 -22 -9 -26 5 -5 1 -4 -8 3 -9 6 -18 9 -21 6 -3 -3 -9 0 -14
7 -5 8 -3 10 6 4 10 -6 12 -4 6 11 -6 15 -5 17 5 7 21 -21 34 -15 15 6 -18 20
-5 24 22 7z m-1604 -102 c4 -11 0 -11 -19 2 -30 20 -31 24 -6 17 11 -3 22 -11
25 -19z m1381 6 c3 -5 1 -10 -4 -10 -6 0 -11 5 -11 10 0 6 2 10 4 10 3 0 8 -4
11 -10z m13 -39 c11 -6 10 -10 -4 -15 -9 -3 -19 -4 -22 -1 -3 3 1 5 9 5 11 0
11 2 -1 10 -8 5 -10 10 -5 10 6 0 16 -4 23 -9z m-193 -82 c-4 -5 -12 -9 -18
-8 -9 0 -8 2 1 6 6 2 9 10 6 15 -4 7 -2 8 5 4 6 -4 9 -12 6 -17z m-841 -22
c-3 -9 3 -13 18 -12 13 1 30 -1 39 -6 10 -5 21 -3 29 4 9 8 11 9 6 0 -3 -6 0
-13 6 -15 7 -3 -8 -4 -34 -4 -25 1 -44 5 -41 9 2 4 -7 6 -21 3 -14 -3 -29 0
-32 6 -4 6 -2 8 3 5 6 -4 13 0 17 8 3 8 8 15 10 15 3 0 3 -6 0 -13z m86 9 c0
-3 -4 -8 -10 -11 -5 -3 -10 -1 -10 4 0 6 5 11 10 11 6 0 10 -2 10 -4z m115 -5
c-8 -7 -45 -9 -50 -1 -2 3 9 6 25 6 17 0 27 -2 25 -5z m100 -1 c3 -5 1 -10 -4
-10 -6 0 -11 5 -11 10 0 6 2 10 4 10 3 0 8 -4 11 -10z m80 0 c-3 -5 -12 -10
-18 -10 -7 0 -6 4 3 10 19 12 23 12 15 0z m240 0 c3 -5 1 -10 -4 -10 -6 0 -11
5 -11 10 0 6 2 10 4 10 3 0 8 -4 11 -10z m145 0 c0 -5 -2 -10 -4 -10 -3 0 -8
5 -11 10 -3 6 -1 10 4 10 6 0 11 -4 11 -10z m-954 -18 c15 -8 15 -10 0 -15
-10 -4 -19 -1 -23 9 -4 11 -8 12 -13 4 -5 -8 -9 -7 -13 3 -6 17 18 16 49 -1z
m37 -2 c3 -11 1 -18 -4 -14 -5 3 -9 12 -9 20 0 20 7 17 13 -6z m285 7 c14 4
14 3 2 -5 -16 -12 -30 -7 -29 11 0 9 2 9 5 0 3 -7 13 -9 22 -6z m-184 -9 c-3
-4 -9 -8 -15 -8 -5 0 -9 4 -9 8 0 5 7 9 15 9 8 0 12 -4 9 -9z"/>
<path d="M2015 3020 c3 -5 8 -10 11 -10 2 0 4 5 4 10 0 6 -5 10 -11 10 -5 0
-7 -4 -4 -10z"/>
<path d="M2788 1693 c7 -3 16 -2 19 1 4 3 -2 6 -13 5 -11 0 -14 -3 -6 -6z"/>
<path d="M625 3339 c-4 -6 -5 -12 -2 -15 2 -3 7 2 10 11 7 17 1 20 -8 4z"/>
<path d="M659 3332 c-13 -15 -12 -16 3 -4 13 10 17 10 21 0 4 -9 6 -9 6 -1 2
20 -16 24 -30 5z"/>
<path d="M859 3333 c-12 -16 -12 -17 2 -6 9 7 20 9 24 5 5 -4 5 -1 1 6 -9 16
-11 15 -27 -5z"/>
<path d="M901 3334 c0 -11 3 -14 6 -6 3 7 2 16 -1 19 -3 4 -6 -2 -5 -13z"/>
<path d="M939 3333 c-12 -16 -12 -17 2 -6 9 7 20 9 24 5 5 -4 5 -1 1 6 -9 16
-11 15 -27 -5z"/>
<path d="M1058 3332 c-11 -15 -11 -15 4 -4 13 10 17 10 21 0 4 -11 6 -10 6 0
1 8 6 10 14 6 6 -4 8 -3 4 1 -13 15 -36 14 -49 -3z"/>
<path d="M1218 3332 c-11 -15 -11 -15 4 -4 13 10 17 10 21 0 4 -11 6 -10 6 0
1 8 6 10 14 6 6 -4 8 -3 4 1 -13 15 -36 14 -49 -3z"/>
<path d="M1425 3339 c-4 -6 -5 -12 -2 -15 2 -3 7 2 10 11 7 17 1 20 -8 4z"/>
<path d="M1459 3332 c-13 -15 -12 -16 3 -4 13 10 17 10 21 0 4 -9 6 -9 6 -1 2
20 -16 24 -30 5z"/>
<path d="M1745 3339 c-4 -6 -5 -12 -2 -15 2 -3 7 2 10 11 7 17 1 20 -8 4z"/>
<path d="M1779 3332 c-13 -15 -12 -16 3 -4 13 10 17 10 21 0 4 -9 6 -9 6 -1 2
20 -16 24 -30 5z"/>
<path d="M2018 3332 c-11 -15 -11 -15 4 -4 13 10 17 10 21 0 4 -11 6 -10 6 0
1 8 6 10 14 6 6 -4 8 -3 4 1 -13 15 -36 14 -49 -3z"/>
<path d="M2178 3332 c-11 -15 -11 -15 4 -4 13 10 17 10 21 0 4 -11 6 -10 6 0
1 8 6 10 14 6 6 -4 8 -3 4 1 -13 15 -36 14 -49 -3z"/>
<path d="M2299 3333 c-12 -16 -12 -17 2 -6 9 7 20 9 24 5 5 -4 5 -1 1 6 -9 16
-11 15 -27 -5z"/>
<path d="M2341 3334 c0 -11 3 -14 6 -6 3 7 2 16 -1 19 -3 4 -6 -2 -5 -13z"/>
<path d="M2379 3333 c-13 -16 -12 -17 4 -4 16 13 21 21 13 21 -2 0 -10 -8 -17
-17z"/>
<path d="M2541 3334 c0 -11 3 -14 6 -6 3 7 2 16 -1 19 -3 4 -6 -2 -5 -13z"/>
<path d="M2610 3339 c0 -5 5 -7 10 -4 6 3 10 8 10 11 0 2 -4 4 -10 4 -5 0 -10
-5 -10 -11z"/>
<path d="M2637 3313 c3 -7 6 -13 8 -13 2 0 5 6 8 13 3 8 -1 14 -8 14 -7 0 -11
-6 -8 -14z"/>
<path d="M2772 3315 c4 -4 3 -14 -4 -22 -8 -11 -7 -12 6 -7 19 7 21 20 4 30
-7 4 -10 4 -6 -1z"/>
<path d="M2725 3299 c-3 -4 2 -6 10 -5 21 3 28 13 10 13 -9 0 -18 -4 -20 -8z"/>
<path d="M295 3280 c-3 -5 -1 -10 4 -10 6 0 11 5 11 10 0 6 -2 10 -4 10 -3 0
-8 -4 -11 -10z"/>
<path d="M2810 3281 c0 -6 4 -12 8 -15 5 -3 9 1 9 9 0 8 -4 15 -9 15 -4 0 -8
-4 -8 -9z"/>
<path d="M2858 3278 c5 -5 16 -8 23 -6 8 3 3 7 -10 11 -17 4 -21 3 -13 -5z"/>
<path d="M2880 3257 c0 -2 6 -10 14 -16 11 -9 16 -9 22 1 4 7 4 10 -1 6 -4 -4
-14 -3 -22 3 -7 6 -13 9 -13 6z"/>
<path d="M2965 3200 c3 -5 8 -10 11 -10 2 0 4 5 4 10 0 6 -5 10 -11 10 -5 0
-7 -4 -4 -10z"/>
<path d="M3064 3151 c2 -19 65 -91 80 -91 5 0 1 7 -10 16 -17 14 -17 15 -1 10
11 -4 16 -2 12 5 -4 6 -13 8 -20 5 -8 -3 -17 4 -20 15 -4 10 -13 19 -21 19
-16 0 -18 12 -4 26 7 7 6 11 -3 11 -8 0 -14 -7 -13 -16z"/>
<path d="M3115 3131 c-3 -5 -2 -12 3 -15 5 -3 9 1 9 9 0 17 -3 19 -12 6z"/>
<path d="M361 3041 c-11 -7 -9 -10 8 -16 13 -4 20 -12 18 -19 -3 -7 1 -13 8
-13 7 0 11 7 8 15 -5 12 -2 12 16 3 12 -7 18 -17 15 -23 -4 -7 -2 -8 5 -4 8 6
9 12 2 20 -6 7 -8 16 -4 20 4 4 0 4 -9 1 -9 -4 -19 -2 -22 4 -4 6 -14 7 -23 4
-11 -4 -14 -3 -9 5 9 14 6 15 -13 3z"/>
<path d="M3193 3028 c-13 -22 -12 -36 7 -53 14 -12 20 -13 26 -4 4 7 3 10 -4
5 -6 -3 -13 -2 -17 4 -3 5 -1 10 4 10 6 0 11 5 11 10 0 6 -3 9 -7 9 -20 -3
-24 2 -13 16 7 8 10 15 7 15 -3 0 -9 -6 -14 -12z"/>
<path d="M780 3015 c8 -11 15 -21 16 -23 1 -2 5 5 8 15 4 9 4 14 0 10 -4 -4
-14 -1 -23 6 -14 11 -15 10 -1 -8z"/>
<path d="M930 3021 c-8 -6 -19 -7 -25 -4 -5 3 -5 0 2 -7 6 -7 10 -18 9 -24 -2
-6 -1 -8 1 -4 3 4 4 10 3 14 -1 3 7 12 17 20 20 15 16 19 -7 5z"/>
<path d="M1535 3020 c3 -5 8 -10 11 -10 2 0 4 5 4 10 0 6 -5 10 -11 10 -5 0
-7 -4 -4 -10z"/>
<path d="M1855 3020 c3 -5 8 -10 11 -10 2 0 4 5 4 10 0 6 -5 10 -11 10 -5 0
-7 -4 -4 -10z"/>
<path d="M2443 3023 c-7 -2 -13 -9 -13 -14 0 -6 4 -8 9 -5 5 4 11 0 14 -6 3
-7 4 -3 4 10 -1 12 -1 22 -2 21 0 0 -6 -3 -12 -6z"/>
<path d="M2395 3009 c-4 -5 -4 -13 -1 -16 3 -4 6 0 6 8 0 11 2 11 10 -1 6 -9
10 -10 10 -3 0 17 -17 25 -25 12z"/>
<path d="M661 2984 c0 -11 3 -14 6 -6 3 7 2 16 -1 19 -3 4 -6 -2 -5 -13z"/>
<path d="M941 2984 c0 -11 3 -14 6 -6 3 7 2 16 -1 19 -3 4 -6 -2 -5 -13z"/>
<path d="M1530 2991 c0 -6 4 -13 10 -16 6 -3 7 1 4 9 -7 18 -14 21 -14 7z"/>
<path d="M1850 2991 c0 -6 4 -13 10 -16 6 -3 7 1 4 9 -7 18 -14 21 -14 7z"/>
<path d="M1950 2991 c0 -6 4 -12 8 -15 5 -3 9 1 9 9 0 8 -4 15 -9 15 -4 0 -8
-4 -8 -9z"/>
<path d="M2090 2991 c0 -6 4 -13 10 -16 6 -3 7 1 4 9 -7 18 -14 21 -14 7z"/>
<path d="M2474 2989 c1 -7 12 -13 24 -14 11 -1 19 2 16 7 -4 5 -12 7 -19 4 -8
-3 -16 -1 -19 5 -2 5 -3 4 -2 -2z"/>
<path d="M2573 2981 c0 -11 5 -18 9 -15 4 3 5 11 1 19 -7 21 -12 19 -10 -4z"/>
<path d="M1006 2982 c-2 -4 4 -8 14 -8 10 0 16 4 14 8 -3 4 -9 8 -14 8 -5 0
-11 -4 -14 -8z"/>
<path d="M1270 2986 c0 -2 7 -7 16 -10 8 -3 12 -2 9 4 -6 10 -25 14 -25 6z"/>
<path d="M1575 2980 c3 -5 8 -10 11 -10 2 0 4 5 4 10 0 6 -5 10 -11 10 -5 0
-7 -4 -4 -10z"/>
<path d="M1895 2980 c3 -5 8 -10 11 -10 2 0 4 5 4 10 0 6 -5 10 -11 10 -5 0
-7 -4 -4 -10z"/>
<path d="M2130 2985 c0 -7 30 -13 34 -7 3 4 -4 9 -15 9 -10 1 -19 0 -19 -2z"/>
<path d="M2650 2981 c0 -6 4 -13 10 -16 6 -3 7 1 4 9 -7 18 -14 21 -14 7z"/>
<path d="M3255 2939 c-4 -6 -4 -13 -1 -16 3 -4 6 -1 6 6 0 7 5 9 12 5 7 -4 8
-3 4 4 -9 15 -13 15 -21 1z"/>
<path d="M494 2780 c0 -13 4 -16 10 -10 7 7 7 13 0 20 -6 6 -10 3 -10 -10z"/>
<path d="M650 2796 c0 -2 8 -10 18 -17 15 -13 16 -12 3 4 -13 16 -21 21 -21
13z"/>
<path d="M1014 2780 c0 -13 4 -16 10 -10 7 7 7 13 0 20 -6 6 -10 3 -10 -10z"/>
<path d="M455 2781 c-3 -5 -2 -12 3 -15 5 -3 9 1 9 9 0 17 -3 19 -12 6z"/>
<path d="M619 2773 c-13 -16 -12 -17 4 -4 16 13 21 21 13 21 -2 0 -10 -8 -17
-17z"/>
<path d="M699 2772 c-13 -15 -12 -16 3 -4 13 10 17 10 21 0 4 -9 6 -9 6 -1 2
20 -16 24 -30 5z"/>
<path d="M819 2772 c-13 -15 -12 -16 3 -4 13 10 17 10 21 0 4 -9 6 -9 6 -1 2
20 -16 24 -30 5z"/>
<path d="M937 2770 c-9 -12 -9 -13 3 -3 8 8 19 9 30 3 11 -6 17 -5 17 3 0 18
-36 16 -50 -3z"/>
<path d="M1090 2781 c0 -6 4 -13 10 -16 6 -3 7 1 4 9 -7 18 -14 21 -14 7z"/>
<path d="M1858 2772 c-11 -15 -11 -15 4 -4 13 10 17 10 21 0 4 -11 6 -10 6 0
1 8 6 10 14 6 6 -4 8 -3 4 1 -13 15 -36 14 -49 -3z"/>
<path d="M2301 2774 c0 -11 3 -14 6 -6 3 7 2 16 -1 19 -3 4 -6 -2 -5 -13z"/>
<path d="M2406 2782 c-3 -5 1 -9 9 -9 8 0 12 4 9 9 -3 4 -7 8 -9 8 -2 0 -6 -4
-9 -8z"/>
<path d="M569 2766 c-2 -3 -17 -7 -33 -10 -16 -3 -33 -11 -38 -18 -6 -10 -8
-10 -8 0 0 6 -5 12 -11 12 -5 0 -8 -4 -5 -8 3 -5 -1 -9 -9 -9 -8 0 -12 4 -10
8 9 13 -24 18 -37 6 -15 -14 -33 -16 -44 -4 -4 4 -12 7 -18 7 -6 0 -4 -5 4
-10 13 -8 13 -10 -1 -10 -9 0 -29 -7 -45 -14 -15 -8 -32 -12 -37 -9 -6 3 -7 1
-3 -5 4 -6 14 -8 24 -5 15 6 16 5 2 -12 -8 -10 -14 -20 -12 -22 8 -12 -1 -13
-15 -2 -16 12 -17 12 -6 -2 7 -9 10 -19 6 -22 -3 -4 -1 -7 5 -7 7 0 12 5 12
10 0 6 5 10 11 10 5 0 7 -5 4 -10 -4 -6 -1 -18 7 -27 9 -12 9 -15 1 -9 -15 8
-17 -3 -5 -22 5 -8 16 -10 28 -6 24 9 16 1 -15 -16 -19 -10 -22 -9 -16 1 5 7
4 10 -2 6 -11 -7 -10 -63 1 -74 3 -4 6 -1 6 6 0 8 8 6 25 -5 21 -14 23 -19 13
-33 -12 -14 -11 -14 5 -2 14 11 17 11 17 0 0 -11 2 -11 10 1 10 16 13 10 13
-32 0 -10 4 -15 8 -12 5 3 7 10 4 15 -4 5 -1 9 5 9 6 0 4 8 -6 18 -10 9 -21
17 -26 17 -8 0 -9 2 -7 33 0 13 2 14 6 2 8 -21 41 -52 59 -54 9 -1 20 -9 25
-17 5 -8 9 -9 9 -4 0 6 9 11 20 12 13 1 18 -2 14 -9 -5 -7 -2 -8 6 -3 20 12
81 15 74 3 -4 -6 2 -6 14 1 29 16 37 14 21 -6 -13 -16 -13 -16 11 0 28 19 50
23 32 5 -7 -7 -12 -17 -12 -22 0 -6 7 -1 15 11 10 15 25 21 49 20 19 0 32 -5
29 -10 -3 -5 4 -4 15 2 30 16 36 14 21 -6 -11 -15 -11 -16 1 -6 15 14 23 43
11 43 -4 0 -11 -3 -15 -7 -12 -13 -67 -12 -63 1 2 6 12 11 23 11 12 0 18 6 16
17 -1 9 1 19 6 22 10 6 9 -24 -2 -42 -4 -6 -4 -12 1 -12 12 1 40 23 42 35 5
19 8 16 7 -6 0 -12 5 -24 13 -27 9 -3 11 0 6 8 -6 9 -3 9 13 1 28 -15 37 -14
23 3 -8 10 -9 16 -1 21 6 4 9 1 8 -5 -2 -7 5 -14 16 -15 24 -5 42 -22 21 -22
-8 0 -15 4 -15 9 0 5 -5 6 -10 3 -6 -4 -4 -12 5 -21 8 -9 12 -20 9 -26 -4 -7
-2 -8 4 -4 6 4 9 12 6 20 -3 7 2 13 11 13 8 0 15 -5 15 -10 0 -5 7 -6 16 -3
11 4 15 2 11 -8 -4 -10 0 -14 12 -11 25 5 45 -10 38 -29 -4 -9 -2 -16 2 -16
17 0 18 25 3 48 -12 19 -17 20 -30 10 -13 -11 -15 -10 -9 4 4 13 1 16 -14 13
-12 -3 -17 0 -13 7 4 6 3 8 -2 5 -6 -3 -16 3 -22 14 -13 20 -12 20 14 2 26
-16 43 -23 71 -25 7 -1 10 -5 7 -10 -3 -4 0 -8 6 -8 6 0 9 -4 5 -9 -3 -6 3
-14 12 -20 10 -6 12 -11 6 -11 -7 0 -13 -7 -13 -16 0 -9 5 -12 12 -8 6 4 8 3
4 -4 -3 -6 -2 -13 4 -17 5 -3 10 -11 10 -18 0 -6 -7 -2 -15 9 -8 10 -15 14
-15 7 0 -7 -7 -10 -17 -7 -17 5 -17 5 -1 -6 9 -6 15 -17 12 -24 -3 -8 0 -17 7
-22 9 -5 10 -2 6 9 -3 10 -2 17 3 17 16 0 12 -30 -4 -36 -9 -3 -12 -12 -9 -21
5 -14 8 -13 20 3 7 10 13 13 13 7 0 -7 -5 -15 -10 -18 -6 -4 -8 -10 -5 -15 3
-4 -5 -5 -17 -2 -22 5 -22 5 -6 -12 10 -9 22 -15 27 -11 5 3 13 0 17 -7 4 -7
4 -10 -1 -6 -4 4 -16 3 -26 -3 -14 -7 -19 -7 -17 2 2 6 -5 13 -16 14 -16 3
-16 1 5 -21 22 -24 35 -32 25 -16 -3 5 1 9 9 9 10 0 12 -4 5 -12 -5 -7 -7 -15
-3 -18 3 -4 0 -13 -6 -21 -9 -10 -9 -16 -1 -21 6 -4 9 -13 6 -21 -3 -7 -1 -16
5 -20 7 -4 6 -10 0 -18 -6 -7 -7 -17 -3 -21 4 -5 2 -5 -4 -2 -6 4 -10 20 -9
36 2 23 -1 28 -13 23 -11 -4 -12 -7 -4 -10 7 -2 9 -8 6 -13 -3 -6 -12 -5 -22
3 -14 11 -14 9 1 -8 9 -11 14 -24 10 -29 -5 -4 -3 -5 4 -1 8 4 11 -1 10 -14
-1 -11 -5 -20 -10 -20 -5 0 -6 -7 -3 -16 5 -13 2 -15 -14 -11 -11 3 -18 1 -14
-4 3 -5 12 -9 20 -9 8 0 12 -4 9 -10 -3 -5 -1 -10 5 -10 6 0 8 11 6 25 -3 13
0 27 5 31 5 3 7 10 4 15 -4 5 -1 9 4 9 12 0 10 -27 -2 -47 -4 -6 -2 -15 4 -18
5 -4 8 -13 5 -21 -3 -7 -1 -16 5 -20 7 -4 6 -10 0 -18 -6 -7 -7 -17 -3 -21 4
-5 2 -5 -4 -2 -6 4 -10 20 -9 36 2 23 -1 28 -13 23 -11 -4 -12 -7 -4 -10 7 -2
9 -8 6 -13 -3 -6 -12 -5 -22 3 -14 11 -14 9 1 -8 9 -11 14 -24 10 -29 -5 -4
-3 -5 4 -1 8 4 11 -1 10 -14 -1 -11 -5 -20 -10 -20 -6 0 -5 -5 0 -12 14 -19
14 -61 0 -71 -7 -5 -2 -6 13 -3 14 3 19 3 13 0 -18 -8 -16 -27 2 -21 8 4 17 1
21 -6 4 -7 4 -9 -1 -5 -4 4 -16 3 -26 -3 -14 -7 -19 -7 -17 2 2 6 -5 13 -16
14 -16 3 -16 1 5 -21 22 -24 35 -32 25 -16 -3 5 2 9 10 9 10 0 11 -4 5 -10 -7
-7 -6 -17 0 -30 6 -11 7 -17 2 -14 -4 3 -19 -1 -33 -8 l-25 -14 29 2 c17 1 30
-3 32 -11 1 -7 0 -8 -3 -2 -8 17 -23 11 -23 -9 0 -22 -23 -44 -35 -33 -5 4 -5
1 -1 -6 4 -7 12 -10 17 -7 14 9 23 -25 10 -38 -14 -14 -14 -27 0 -27 5 0 7 5
3 12 -5 7 -3 8 6 3 8 -5 11 -4 6 3 -3 6 -1 14 5 18 7 4 9 3 5 -4 -3 -6 -2 -14
4 -17 7 -4 7 -12 2 -18 -10 -14 -9 -57 1 -74 6 -9 3 -11 -10 -6 -17 6 -17 5 0
-14 9 -11 17 -23 17 -28 0 -5 -7 0 -16 11 -13 16 -15 16 -10 2 3 -10 1 -20 -4
-23 -14 -9 -12 -21 6 -39 8 -9 21 -13 27 -9 7 4 6 -1 -2 -10 -7 -9 -19 -17
-25 -17 -6 0 -4 5 4 11 13 9 12 10 -3 5 -10 -3 -15 -2 -12 3 3 5 1 12 -4 16
-6 3 -8 -4 -6 -16 3 -16 0 -20 -13 -15 -14 5 -14 4 1 -8 11 -8 24 -13 30 -12
7 2 9 1 5 -1 -14 -8 -8 -25 7 -20 8 4 17 1 21 -6 4 -7 4 -9 -1 -5 -4 4 -16 3
-26 -3 -14 -7 -19 -7 -17 2 2 6 -5 13 -16 14 -16 3 -16 1 5 -21 22 -24 35 -32
25 -16 -3 5 2 9 10 9 10 0 11 -4 5 -10 -6 -6 -7 -16 -1 -28 7 -13 6 -17 -5
-15 -8 1 -18 6 -22 11 -4 4 -2 5 5 1 6 -4 12 -2 12 3 0 13 -10 14 -28 2 -11
-7 -10 -9 3 -14 11 -5 13 -12 7 -24 -23 -45 2 -144 32 -126 8 5 8 3 0 -8 -11
-15 -12 -58 -2 -74 4 -6 -2 -11 -12 -11 -14 0 -16 4 -10 16 12 22 6 53 -11 58
-8 2 -10 0 -4 -5 12 -10 20 -47 8 -40 -4 3 -9 -6 -9 -20 -1 -16 2 -23 11 -19
14 5 35 -12 35 -28 0 -5 -7 -1 -16 10 -13 16 -15 16 -10 2 3 -11 -3 -23 -15
-31 -17 -13 -18 -15 -4 -21 12 -4 14 -10 5 -25 -13 -25 -13 -31 1 -31 5 0 8 4
5 8 -2 4 -1 14 4 21 9 15 30 6 29 -12 0 -9 -2 -8 -6 1 -2 6 -9 9 -14 6 -6 -3
-5 -12 3 -22 10 -12 10 -14 1 -8 -8 4 -13 2 -13 -4 0 -6 -4 -9 -9 -5 -5 3 -8
-9 -7 -27 1 -18 7 -31 12 -28 5 3 8 8 6 13 -1 4 2 7 8 7 13 0 13 -17 0 -25 -6
-4 -7 -11 -4 -17 4 -6 10 -5 15 3 6 10 9 10 9 2 0 -6 -4 -14 -8 -17 -5 -3 -8
-26 -7 -51 2 -26 0 -44 -3 -40 -3 3 -6 22 -7 42 0 23 -5 38 -15 40 -9 3 -11 1
-5 -4 12 -10 20 -47 8 -40 -4 3 -9 -6 -10 -20 -1 -19 1 -22 8 -12 6 10 8 6 7
-14 -2 -17 -7 -26 -15 -23 -7 3 -15 1 -18 -5 -4 -5 -3 -9 2 -8 22 4 30 -3 29
-24 -1 -14 -7 -21 -16 -19 -8 2 -12 0 -7 -4 4 -4 17 -9 28 -11 17 -3 20 1 14
14 -13 34 -13 50 0 50 8 0 12 -9 9 -24 -3 -16 -1 -22 6 -18 7 4 4 -7 -5 -25
-12 -22 -19 -29 -25 -21 -5 9 -9 6 -13 -8 -3 -12 0 -24 5 -28 7 -4 8 -1 4 6
-6 8 -2 11 10 9 10 -2 19 2 19 9 0 6 4 15 9 20 5 4 6 3 3 -4 -4 -6 0 -18 8
-26 11 -12 12 -16 2 -20 -6 -2 -9 -8 -5 -12 4 -4 13 -3 20 1 23 15 37 13 31
-4 -5 -11 -3 -13 7 -7 9 6 11 4 5 -5 -6 -10 -11 -9 -21 4 -7 10 -15 13 -18 7
-4 -5 -2 -12 4 -16 5 -3 10 -10 10 -15 0 -5 -12 2 -26 15 -14 13 -23 29 -19
35 6 9 2 9 -14 1 -11 -7 -21 -14 -21 -17 0 -3 5 -2 10 1 6 3 13 -1 16 -9 3 -9
11 -16 18 -16 20 0 39 -40 26 -55 -10 -12 -7 -12 14 -2 13 6 21 14 18 17 -11
8 -14 32 -3 26 5 -4 13 4 16 15 7 20 8 20 17 5 5 -9 13 -14 19 -11 5 4 9 1 9
-4 0 -14 -13 -14 -28 1 -8 8 -12 9 -12 1 0 -6 3 -13 8 -16 4 -2 0 -2 -8 0 -9
3 -6 -4 8 -17 12 -12 19 -26 16 -32 -4 -7 -2 -8 4 -4 9 5 9 13 1 28 -10 18 -9
20 5 15 9 -4 15 -3 15 1 -4 26 2 32 21 22 16 -8 20 -8 18 2 -2 7 3 12 10 10 8
-1 11 2 7 8 -5 8 -11 7 -21 -1 -27 -22 -24 -2 3 26 16 16 23 25 16 22 -16 -10
-40 1 -40 18 0 8 3 13 5 10 3 -3 12 1 21 8 14 11 14 10 2 -6 -8 -9 -11 -20 -7
-24 3 -3 6 -1 6 6 0 7 4 10 8 7 8 -4 8 14 3 57 -1 5 -5 6 -9 3 -14 -8 -7 28 9
52 9 12 19 19 24 14 4 -4 3 3 -4 15 -15 29 -14 38 2 24 10 -8 14 -7 14 4 0 8
-4 12 -9 9 -4 -3 -8 4 -8 16 0 12 4 19 8 16 4 -2 9 4 9 15 1 10 -3 19 -8 19
-6 0 -7 -5 -4 -10 3 -6 -1 -13 -9 -16 -9 -3 -13 -10 -10 -15 3 -5 1 -16 -4
-25 -8 -15 -10 -15 -15 0 -4 10 -3 15 3 11 6 -3 10 -1 10 4 0 6 -5 11 -12 11
-6 0 -3 6 7 14 19 14 19 15 0 37 -11 12 -14 19 -7 15 6 -4 12 -2 12 3 0 6 -6
11 -12 11 -7 0 -5 5 4 11 10 5 18 15 18 21 0 6 -5 7 -13 2 -7 -5 -4 -1 6 8 11
10 24 15 30 11 6 -3 7 -1 3 5 -5 8 -15 8 -34 1 -27 -10 -27 -10 -7 9 11 11 23
18 26 16 3 -2 4 8 1 22 -4 23 -15 25 -18 3 -1 -5 -2 -13 -3 -19 0 -5 -5 -10
-10 -10 -5 0 -8 8 -6 18 1 9 -3 24 -9 32 -10 13 -9 13 8 0 18 -14 19 -13 13 3
-5 12 -3 16 4 11 7 -4 10 -1 7 7 -3 8 -10 13 -16 12 -5 -1 -9 5 -7 15 1 9 -3
23 -9 31 -9 12 -8 12 12 0 12 -8 20 -19 18 -26 -3 -6 1 -14 8 -16 19 -7 8 34
-13 51 -9 8 -10 10 -2 6 9 -4 12 -2 9 7 -3 8 -10 13 -15 12 -5 -1 -9 8 -10 20
0 12 1 16 4 9 3 -6 10 -9 15 -6 6 4 8 2 5 -3 -4 -6 0 -14 9 -17 9 -4 13 -2 8
5 -4 6 0 15 7 21 12 7 11 8 -1 7 -8 -1 -23 1 -33 6 -15 6 -16 10 -5 16 11 8
11 10 0 18 -11 7 -11 9 2 14 9 4 16 14 16 23 0 15 2 15 22 -2 14 -12 18 -13
10 -3 -6 9 -8 20 -4 24 4 5 1 5 -5 1 -9 -5 -13 0 -13 14 0 12 4 19 9 16 5 -4
8 2 6 11 -1 10 3 25 9 33 10 13 9 13 -6 1 -13 -9 -18 -10 -18 -2 0 7 -4 10 -9
7 -5 -3 -17 7 -27 22 -13 20 -13 24 -2 15 8 -7 18 -10 22 -6 4 4 5 1 3 -7 -2
-8 -2 -12 0 -8 2 4 12 5 21 2 15 -5 15 -4 0 6 -20 12 -25 35 -5 24 10 -6 10
-4 0 7 -15 15 -17 33 -4 24 5 -3 13 0 17 6 4 8 3 9 -4 5 -7 -4 -12 -3 -12 3 0
5 8 15 18 20 10 6 12 11 4 11 -7 0 -10 5 -6 12 4 6 3 8 -3 5 -6 -4 -22 2 -34
14 -13 11 -19 19 -14 17 6 -3 21 7 34 20 15 16 17 23 7 19 -44 -18 -50 -19
-28 -2 15 11 21 23 17 36 -5 15 -3 18 12 13 14 -4 15 -4 4 4 -7 5 -11 14 -7
20 3 6 2 13 -4 17 -5 3 -10 11 -10 16 0 6 4 8 9 4 5 -3 13 0 17 6 4 8 3 9 -4
5 -7 -4 -12 -3 -12 3 0 5 8 15 18 20 10 6 12 11 4 11 -7 0 -10 4 -7 10 3 6 -1
7 -10 3 -13 -5 -14 -7 -3 -14 12 -8 4 -13 -14 -10 -4 0 -5 -7 -2 -17 5 -14 4
-14 -4 -2 -7 8 -7 20 -2 30 6 10 2 23 -13 40 -19 21 -20 23 -2 10 11 -8 23
-19 26 -24 4 -4 10 -3 13 3 4 6 2 11 -5 11 -7 0 -10 3 -6 6 3 4 0 18 -8 33 -9
18 -10 32 -4 43 7 12 5 20 -8 27 -17 10 -17 10 0 11 9 0 17 -5 17 -11 0 -5 5
-7 11 -3 6 3 7 9 3 13 -13 9 -17 44 -5 37 5 -4 13 -1 17 5 4 8 3 9 -4 5 -7 -4
-12 -3 -12 3 0 5 8 15 18 20 10 6 12 11 4 11 -7 0 -10 4 -7 10 3 6 -1 7 -10 3
-13 -5 -14 -7 -3 -14 12 -8 4 -13 -14 -10 -4 0 -5 -7 -2 -17 5 -14 4 -14 -4
-2 -7 8 -7 20 -2 30 6 10 2 23 -13 40 -19 21 -20 23 -2 10 11 -8 23 -19 26
-24 4 -4 10 -3 13 3 4 6 2 11 -5 11 -7 0 -10 3 -6 6 3 4 0 18 -8 33 -9 18 -10
32 -4 43 7 12 5 20 -8 27 -17 10 -17 10 0 11 9 0 17 -5 17 -11 0 -5 5 -7 11
-3 6 3 7 9 3 13 -13 9 -17 44 -5 37 5 -4 13 -1 17 5 4 8 3 9 -4 5 -7 -4 -12
-3 -12 3 0 5 8 15 18 20 10 6 12 11 4 11 -7 0 -10 5 -6 12 4 6 3 8 -3 5 -6 -4
-22 2 -34 14 -13 11 -19 19 -14 17 6 -3 21 7 34 20 15 16 17 23 7 19 -44 -18
-50 -19 -28 -2 15 11 21 23 17 36 -5 15 -3 18 12 13 14 -4 15 -4 4 4 -7 5 -11
14 -7 20 3 6 2 13 -4 17 -5 3 -10 11 -10 16 0 6 4 8 9 4 5 -3 13 0 17 6 4 8 3
9 -4 5 -7 -4 -12 -3 -12 3 0 5 8 15 18 20 10 6 12 11 4 11 -7 0 -10 5 -6 12 4
6 3 8 -3 5 -6 -4 -22 2 -34 14 -13 11 -19 19 -14 17 6 -3 21 7 34 20 15 16 17
23 7 19 -44 -18 -50 -19 -28 -2 15 11 21 23 17 36 -5 15 -3 18 12 13 15 -5 16
-4 3 5 -13 10 -13 12 0 21 8 5 11 10 6 10 -5 0 -2 8 5 17 10 12 10 14 1 9 -17
-10 -44 -65 -37 -76 3 -5 0 -12 -7 -16 -7 -4 -10 -3 -5 1 4 5 0 20 -10 34 -16
25 -16 25 2 11 16 -13 18 -13 13 0 -3 8 3 24 13 35 18 20 18 21 -1 21 -10 0
-17 -4 -14 -7 2 -4 1 -10 -4 -13 -4 -2 -9 4 -9 15 -1 13 4 19 15 17 9 -2 16 3
14 10 -1 6 4 12 10 12 10 0 10 2 0 9 -8 4 -13 11 -13 15 1 3 0 9 -1 14 -1 6
-3 28 -7 70 0 6 -6 12 -12 12 -8 0 -8 -4 0 -14 9 -10 8 -16 -4 -26 -13 -11
-14 -10 -9 3 6 16 -39 127 -51 127 -3 0 -3 -4 0 -10 8 -13 -28 0 -37 14 -5 7
-8 5 -8 -4 0 -13 -1 -13 -10 0 -7 11 -10 12 -10 2 0 -10 -4 -10 -16 2 -19 20
-33 20 -40 1 -4 -8 -10 -15 -16 -15 -5 0 -6 5 -3 10 3 6 2 10 -4 10 -5 0 -12
-6 -14 -12 -4 -10 -6 -10 -6 0 -1 6 -6 12 -12 12 -5 0 -8 -4 -5 -8 2 -4 -6 -8
-19 -8 -13 0 -21 4 -19 8 3 5 10 5 16 2 7 -4 8 -2 4 4 -8 13 -36 5 -36 -12 -1
-6 -7 0 -16 14 l-15 25 6 -25 6 -25 -16 25 c-9 14 -14 17 -11 8 6 -21 -5 -23
-23 -5 -10 10 -11 9 -6 -3 4 -11 -1 -16 -17 -17 -18 -2 -20 0 -8 7 13 8 12 10
-2 10 -10 0 -18 -6 -18 -12 -1 -7 -7 -2 -14 11 l-14 24 -6 -21 c-4 -12 -12
-20 -17 -16 -6 3 -5 12 3 22 11 15 11 15 -3 5 -9 -7 -19 -10 -22 -6 -4 3 -9
-2 -13 -11 -3 -9 -10 -16 -16 -16 -5 0 -6 5 -3 10 3 6 1 10 -4 10 -6 0 -11 -6
-11 -12 0 -9 -3 -10 -8 -2 -10 15 -57 39 -48 25 4 -6 0 -11 -8 -11 -9 0 -16
-6 -16 -12 -1 -7 -7 -2 -14 11 -13 23 -14 23 -20 5 -6 -19 -46 -29 -46 -12 0
4 6 8 14 8 8 0 18 5 21 10 6 10 2 14 -6 6z m-39 -26 c0 -5 -5 -10 -11 -10 -5
0 -7 5 -4 10 3 6 8 10 11 10 2 0 4 -4 4 -10z m143 3 c3 -5 -6 -9 -20 -10 -19
-1 -22 1 -12 8 17 11 26 11 32 2z m411 -1 c3 -5 -1 -9 -9 -9 -8 0 -15 4 -15 9
0 4 4 8 9 8 6 0 12 -4 15 -8z m161 -152 c-3 -5 -12 -10 -18 -10 -7 0 -6 4 3
10 19 12 23 12 15 0z m11 -42 c1 -9 -4 -19 -12 -22 -11 -4 -12 -2 -4 13 7 13
7 21 0 24 -6 3 -5 4 1 3 7 -1 13 -9 15 -18z m-915 -2 c-9 -10 -8 -16 4 -26 8
-7 15 -18 15 -24 0 -6 -5 -4 -10 4 -5 8 -10 11 -10 6 0 -5 -6 -3 -13 3 -8 6
-16 8 -20 5 -3 -3 -4 2 -3 13 2 10 8 18 14 18 6 0 14 3 18 8 13 12 17 8 5 -7z
m33 -4 c3 -5 -1 -9 -9 -9 -8 0 -12 4 -9 9 3 4 7 8 9 8 2 0 6 -4 9 -8z m56 -27
c0 -2 -9 -3 -19 -2 -11 0 -18 5 -15 9 4 6 34 0 34 -7z m514 -21 c3 -8 2 -12
-4 -9 -6 3 -10 10 -10 16 0 14 7 11 14 -7z m-499 -26 c12 6 25 1 25 -9 0 -8
-4 -9 -13 0 -8 6 -16 8 -20 5 -3 -3 -10 5 -17 18 -11 22 -11 22 5 3 9 -11 18
-19 20 -17z m223 21 c-2 -6 3 -14 10 -16 6 -3 12 0 12 6 0 6 5 11 12 11 6 0 3
-9 -7 -20 -17 -19 -19 -19 -31 -3 -7 10 -10 21 -8 25 8 12 14 10 12 -3z m-170
-19 c-7 -10 -14 -18 -15 -16 -6 6 9 36 18 36 5 0 4 -9 -3 -20z m63 -5 c5 4 9
1 9 -4 0 -14 -17 -14 -25 -1 -3 6 -11 10 -16 10 -6 0 -7 -4 -4 -10 3 -5 1 -10
-4 -10 -15 0 -14 13 1 28 9 9 14 9 21 -3 4 -9 12 -13 18 -10z m75 11 c15 -16
18 -26 6 -26 -4 0 -13 9 -20 20 -14 23 -7 26 14 6z m-26 -17 c0 -14 -17 -10
-23 5 -4 10 -1 13 9 9 7 -3 14 -9 14 -14z m657 -189 c-7 -13 -14 -15 -18 -8
-10 17 1 38 16 31 11 -4 12 -9 2 -23z m-9 -42 c8 -8 8 -17 1 -30 -5 -10 -7
-23 -4 -28 3 -5 0 -12 -7 -16 -7 -4 -10 -4 -6 1 4 4 3 17 -3 28 -8 14 -8 18 1
12 14 -9 10 27 -5 37 -7 5 -6 8 1 8 5 0 15 -5 22 -12z m9 -198 c-7 -13 -14
-15 -18 -8 -10 17 1 38 16 31 11 -4 12 -9 2 -23z m-12 -40 c3 -6 -1 -7 -9 -4
-18 7 -21 14 -7 14 6 0 13 -4 16 -10z m-209 -164 c0 -13 -4 -22 -8 -20 -9 6
-6 44 3 44 4 0 6 -11 5 -24z m9 -45 c3 -5 0 -13 -6 -17 -7 -4 -9 -3 -5 4 3 5
0 13 -6 15 -9 4 -10 6 -1 6 6 1 14 -3 18 -8z m200 -31 c3 -6 -1 -7 -9 -4 -18
7 -21 14 -7 14 6 0 13 -4 16 -10z m-200 -170 c3 -5 1 -10 -4 -10 -6 0 -11 5
-11 10 0 6 2 10 4 10 3 0 8 -4 11 -10z m0 -22 c5 4 5 1 1 -6 -6 -10 -11 -10
-22 -1 -8 6 -14 14 -14 16 0 3 6 0 13 -6 8 -6 18 -7 22 -3z m203 -50 c8 -8 8
-17 1 -30 -5 -10 -7 -23 -4 -28 3 -5 0 -12 -7 -16 -7 -4 -10 -3 -5 1 4 5 0 20
-10 34 -16 25 -16 25 1 12 16 -13 17 -13 14 5 -1 10 -7 22 -13 26 -7 5 -6 8 1
8 5 0 15 -5 22 -12z m-208 -162 c0 -3 -4 -8 -10 -11 -5 -3 -10 -1 -10 4 0 6 5
11 10 11 6 0 10 -2 10 -4z m217 -36 c-7 -13 -14 -15 -18 -8 -10 17 1 38 16 31
11 -4 12 -9 2 -23z m-12 -39 c3 -5 0 -13 -6 -17 -7 -4 -9 -3 -5 4 3 5 0 13 -6
15 -9 4 -10 6 -1 6 6 1 14 -3 18 -8z m20 -102 c-10 -15 -25 -10 -19 6 4 8 10
12 15 9 5 -3 7 -10 4 -15z m-15 -28 c0 -11 -20 -36 -21 -26 0 6 -2 18 -4 27
-2 11 2 15 11 11 8 -3 14 -8 14 -12z m-204 -9 c1 -7 0 -8 -3 -2 -2 5 -9 7 -14
4 -6 -3 -5 -12 3 -22 10 -12 10 -14 1 -8 -7 4 -13 2 -13 -3 0 -6 5 -11 10 -11
6 0 10 -5 10 -11 0 -5 -4 -7 -10 -4 -5 3 -10 1 -10 -4 0 -6 4 -11 9 -11 5 0
11 -6 14 -14 4 -9 0 -12 -12 -9 -14 4 -17 14 -16 51 2 26 3 51 4 55 2 13 24 3
27 -11z m-3 -276 c5 -12 -2 -14 -31 -7 -2 1 0 6 3 11 9 14 22 12 28 -4z m-3
-95 c0 -5 -7 -11 -14 -14 -10 -4 -13 -1 -9 9 6 15 23 19 23 5z m205 -160 c-3
-6 -11 -11 -16 -11 -5 0 -4 6 3 14 14 16 24 13 13 -3z m-5 -95 c0 -2 -7 -7
-16 -10 -8 -3 -12 -2 -9 4 6 10 25 14 25 6z m-31 -87 c-12 -23 -29 -34 -29
-19 0 6 -4 9 -8 6 -5 -3 -9 1 -9 9 0 8 4 15 9 15 4 0 8 -4 8 -10 0 -5 5 -10
11 -10 6 0 9 6 6 13 -3 8 1 14 8 14 10 0 11 -5 4 -18z"/>
<path d="M310 2536 c0 -2 8 -10 18 -17 15 -13 16 -12 3 4 -13 16 -21 21 -21
13z"/>
<path d="M1140 2760 c8 -5 20 -10 25 -10 6 0 3 5 -5 10 -8 5 -19 10 -25 10 -5
0 -3 -5 5 -10z"/>
<path d="M1696 2757 c3 -10 9 -15 12 -12 3 3 0 11 -7 18 -10 9 -11 8 -5 -6z"/>
<path d="M3329 2763 c0 -5 -2 -16 -4 -25 -2 -9 4 -23 13 -30 10 -7 14 -8 10
-4 -4 5 0 15 10 22 16 12 16 12 -3 11 -14 -1 -19 3 -17 16 2 9 0 17 -3 17 -3
0 -5 -3 -6 -7z"/>
<path d="M1670 2739 c0 -5 5 -7 10 -4 6 3 10 8 10 11 0 2 -4 4 -10 4 -5 0 -10
-5 -10 -11z"/>
<path d="M2460 2746 c0 -2 9 -6 20 -9 11 -3 18 -1 14 4 -5 9 -34 13 -34 5z"/>
<path d="M1210 2700 c0 -5 5 -10 11 -10 5 0 7 5 4 10 -3 6 -8 10 -11 10 -2 0
-4 -4 -4 -10z"/>
<path d="M1230 2669 c0 -5 5 -7 10 -4 6 3 10 8 10 11 0 2 -4 4 -10 4 -5 0 -10
-5 -10 -11z"/>
<path d="M2576 2653 c-6 -14 -5 -15 5 -6 7 7 10 15 7 18 -3 3 -9 -2 -12 -12z"/>
<path d="M1576 2623 c-6 -14 -5 -15 5 -6 7 7 10 15 7 18 -3 3 -9 -2 -12 -12z"/>
<path d="M1600 2620 c0 -5 -8 -18 -19 -29 -18 -18 -18 -18 6 -18 18 0 21 2 12
8 -8 5 -9 9 -4 9 6 0 11 9 12 20 1 11 0 20 -3 20 -2 0 -4 -4 -4 -10z"/>
<path d="M3074 2608 c0 -10 1 -18 3 -18 1 0 7 8 12 18 7 13 6 19 -2 19 -7 0
-13 -9 -13 -19z"/>
<path d="M280 2610 c-9 -6 -10 -10 -3 -10 6 0 15 5 18 10 8 12 4 12 -15 0z"/>
<path d="M260 2580 c0 -4 7 -7 15 -6 23 3 26 12 5 13 -11 1 -20 -2 -20 -7z"/>
<path d="M3350 2576 c0 -2 6 -9 14 -15 11 -9 16 -9 22 0 4 8 3 9 -4 5 -7 -4
-12 -2 -12 3 0 6 -4 11 -10 11 -5 0 -10 -2 -10 -4z"/>
<path d="M3349 2548 c-6 -27 -5 -39 7 -49 12 -9 18 -9 27 0 9 10 8 11 -5 6
-13 -5 -16 -2 -13 14 2 11 0 23 -6 26 -5 4 -9 5 -10 3z"/>
<path d="M318 2473 c7 -3 16 -2 19 1 4 3 -2 6 -13 5 -11 0 -14 -3 -6 -6z"/>
<path d="M2502 2460 c-18 -29 -15 -38 4 -12 9 13 14 25 12 27 -2 2 -9 -5 -16
-15z"/>
<path d="M3113 2460 c1 -11 6 -21 12 -24 16 -6 15 17 -1 32 -10 9 -12 7 -11
-8z"/>
<path d="M806 2447 c3 -10 9 -15 12 -12 3 3 0 11 -7 18 -10 9 -11 8 -5 -6z"/>
<path d="M840 2450 c10 -6 11 -10 3 -10 -7 0 -13 -5 -13 -11 0 -8 5 -8 15 1
16 13 11 30 -8 30 -7 0 -6 -4 3 -10z"/>
<path d="M3070 2446 c0 -2 7 -7 16 -10 8 -3 12 -2 9 4 -6 10 -25 14 -25 6z"/>
<path d="M3370 2439 c0 -5 5 -7 10 -4 6 3 10 8 10 11 0 2 -4 4 -10 4 -5 0 -10
-5 -10 -11z"/>
<path d="M430 2426 c0 -8 4 -17 8 -20 4 -2 8 4 8 15 0 10 -4 19 -8 19 -4 0 -8
-6 -8 -14z"/>
<path d="M2043 2430 c-13 -5 -23 -11 -23 -14 0 -7 40 6 46 15 6 10 6 10 -23
-1z"/>
<path d="M1890 2422 c0 -5 7 -9 15 -9 8 0 12 4 9 9 -3 4 -9 8 -15 8 -5 0 -9
-4 -9 -8z"/>
<path d="M2250 2426 c0 -2 7 -7 16 -10 8 -3 12 -2 9 4 -6 10 -25 14 -25 6z"/>
<path d="M1555 2410 c-3 -6 1 -7 9 -4 18 7 21 14 7 14 -6 0 -13 -4 -16 -10z"/>
<path d="M977 2385 c-4 -8 -3 -16 1 -19 4 -3 9 4 9 15 2 23 -3 25 -10 4z"/>
<path d="M1571 2391 c-7 -5 -11 -13 -7 -19 3 -6 0 -13 -6 -15 -9 -4 -10 -6 -1
-6 13 -1 26 16 29 37 3 14 3 14 -15 3z"/>
<path d="M3075 2348 l-20 -21 22 12 c16 8 23 8 26 -2 3 -6 4 -2 4 11 -1 27 -6
27 -32 0z"/>
<path d="M1258 2323 c7 -3 16 -2 19 1 4 3 -2 6 -13 5 -11 0 -14 -3 -6 -6z"/>
<path d="M3348 2283 c6 -2 9 -10 6 -15 -4 -7 -2 -8 5 -4 13 9 5 26 -12 25 -9
0 -8 -2 1 -6z"/>
<path d="M1564 2264 c-18 -14 -18 -15 4 -4 12 6 22 13 22 15 0 8 -5 6 -26 -11z"/>
<path d="M996 2243 c-6 -14 -5 -15 5 -6 7 7 10 15 7 18 -3 3 -9 -2 -12 -12z"/>
<path d="M1559 2209 l-24 -20 28 17 c15 9 27 18 27 20 0 8 -8 4 -31 -17z"/>
<path d="M1564 2184 c-18 -14 -18 -15 4 -4 12 6 22 13 22 15 0 8 -5 6 -26 -11z"/>
<path d="M2981 2193 c-1 -17 16 -25 25 -12 4 7 3 9 -4 5 -5 -3 -13 0 -15 6 -4
9 -6 10 -6 1z"/>
<path d="M2936 2181 c-3 -4 1 -17 10 -27 14 -18 15 -18 5 2 -6 12 -7 24 -4 28
3 3 4 6 0 6 -3 0 -8 -4 -11 -9z"/>
<path d="M995 2160 c-3 -5 -1 -10 4 -10 6 0 11 5 11 10 0 6 -2 10 -4 10 -3 0
-8 -4 -11 -10z"/>
<path d="M1019 2143 c-1 -5 -1 -12 0 -17 1 -5 -7 -6 -19 -3 -11 3 -18 1 -14
-4 3 -5 12 -9 20 -9 8 0 12 -4 9 -10 -3 -5 -1 -10 5 -10 7 0 10 7 7 15 -4 8
-2 17 3 20 6 4 10 10 10 16 0 11 -19 12 -21 2z"/>
<path d="M1530 2146 c0 -2 7 -7 16 -10 8 -3 12 -2 9 4 -6 10 -25 14 -25 6z"/>
<path d="M2915 2140 c6 -9 -8 -14 -28 -11 -5 1 -6 -3 -2 -9 4 -7 12 -7 26 0
20 11 26 30 8 30 -5 0 -7 -4 -4 -10z"/>
<path d="M1258 2083 c7 -3 16 -2 19 1 4 3 -2 6 -13 5 -11 0 -14 -3 -6 -6z"/>
<path d="M1559 2076 c0 -1 -2 -9 -4 -19 -3 -18 -3 -18 16 -1 10 9 19 18 19 19
0 2 -29 3 -31 1z"/>
<path d="M2781 2064 c0 -11 3 -14 6 -6 3 7 2 16 -1 19 -3 4 -6 -2 -5 -13z"/>
<path d="M2745 2054 c-11 -8 -25 -12 -32 -10 -8 3 -10 -1 -6 -12 6 -15 5 -16
-12 -2 -11 9 -16 10 -11 3 7 -13 -3 -17 -34 -14 -13 2 -13 0 -1 -8 10 -6 22
-6 35 1 12 6 22 11 23 10 6 -3 63 34 63 41 0 9 -2 9 -25 -9z"/>
<path d="M1819 2040 c0 -3 -2 -13 -4 -23 -2 -11 -1 -16 2 -13 4 3 11 1 18 -4
8 -7 12 -5 12 5 0 8 -4 12 -8 9 -4 -2 -10 0 -14 6 -3 5 1 10 9 10 8 0 17 4 20
8 2 4 -4 8 -15 8 -10 0 -19 -3 -20 -6z"/>
<path d="M2655 2040 c-3 -5 -1 -10 4 -10 6 0 11 5 11 10 0 6 -2 10 -4 10 -3 0
-8 -4 -11 -10z"/>
<path d="M2610 2020 c0 -5 5 -10 11 -10 5 0 7 5 4 10 -3 6 -8 10 -11 10 -2 0
-4 -4 -4 -10z"/>
<path d="M3190 1989 c0 -5 -5 -7 -12 -3 -7 4 -8 3 -4 -4 4 -6 13 -9 21 -6 8 4
12 10 9 15 -7 12 -14 11 -14 -2z"/>
<path d="M1270 1940 c-9 -6 -10 -10 -3 -10 6 0 15 5 18 10 8 12 4 12 -15 0z"/>
<path d="M2516 1938 c3 -5 10 -6 15 -3 13 9 11 12 -6 12 -8 0 -12 -4 -9 -9z"/>
<path d="M1820 1930 c-12 -7 -10 -9 7 -7 12 0 19 5 17 9 -6 10 -6 10 -24 -2z"/>
<path d="M1280 1921 c-8 -6 -18 -7 -23 -4 -5 3 -4 -4 3 -16 9 -18 30 -21 30
-5 0 3 -4 2 -10 -1 -17 -11 -11 7 8 21 19 15 14 18 -8 5z"/>
<path d="M3138 1890 c18 -21 15 -34 -5 -19 -16 12 -17 12 -6 -2 7 -9 10 -18 7
-21 -2 -3 2 -8 11 -12 9 -3 13 -2 10 4 -3 5 -1 20 6 32 6 13 8 20 4 16 -5 -4
-15 -2 -24 4 -13 10 -14 10 -3 -2z"/>
<path d="M1820 1840 c0 -6 7 -10 15 -10 8 0 15 2 15 4 0 2 -7 6 -15 10 -8 3
-15 1 -15 -4z"/>
<path d="M2536 1774 c-4 -9 -2 -13 5 -8 7 4 9 -1 5 -17 -3 -13 -3 -18 0 -11 6
13 26 17 22 5 -3 -9 5 -13 28 -13 8 0 12 5 9 10 -4 6 -10 8 -15 5 -5 -3 -17 6
-28 20 -16 20 -21 22 -26 9z"/>
<path d="M995 1770 c-3 -5 -1 -10 4 -10 6 0 11 5 11 10 0 6 -2 10 -4 10 -3 0
-8 -4 -11 -10z"/>
<path d="M1569 1774 c-1 -5 -2 -22 -3 -39 0 -16 -6 -30 -13 -30 -6 0 -15 -4
-20 -8 -4 -5 -1 -7 7 -5 8 2 14 -3 12 -10 -2 -10 2 -10 16 -3 14 7 19 21 18
50 -1 35 -14 70 -17 45z m11 -74 c0 -5 -5 -10 -11 -10 -5 0 -7 5 -4 10 3 6 8
10 11 10 2 0 4 -4 4 -10z"/>
<path d="M1852 1700 c0 -14 2 -19 5 -12 2 6 2 18 0 25 -3 6 -5 1 -5 -13z"/>
<path d="M2594 1700 c0 -13 4 -16 10 -10 7 7 7 13 0 20 -6 6 -10 3 -10 -10z"/>
<path d="M2684 1697 c0 -15 2 -16 11 -4 5 7 16 12 24 9 8 -3 11 0 7 6 -11 18
-42 10 -42 -11z"/>
<path d="M1270 1700 c-9 -6 -10 -10 -3 -10 6 0 15 5 18 10 8 12 4 12 -15 0z"/>
<path d="M3275 1700 c3 -5 8 -10 11 -10 2 0 4 5 4 10 0 6 -5 10 -11 10 -5 0
-7 -4 -4 -10z"/>
<path d="M995 1680 c-3 -5 -1 -10 4 -10 6 0 11 5 11 10 0 6 -2 10 -4 10 -3 0
-8 -4 -11 -10z"/>
<path d="M1280 1681 c-8 -6 -18 -7 -23 -4 -5 3 -4 -4 3 -16 9 -18 30 -21 30
-5 0 3 -4 2 -10 -1 -17 -11 -11 7 8 21 19 15 14 18 -8 5z"/>
<path d="M2710 1685 c0 -5 5 -17 10 -25 5 -8 10 -10 10 -5 0 6 -5 17 -10 25
-5 8 -10 11 -10 5z"/>
<path d="M1020 1660 c0 -5 5 -10 10 -10 6 0 10 5 10 10 0 6 -4 10 -10 10 -5 0
-10 -4 -10 -10z"/>
<path d="M2886 1659 c3 -5 12 -9 21 -9 19 0 9 13 -12 16 -8 1 -13 -2 -9 -7z"/>
<path d="M2930 1651 c0 -6 -8 -11 -17 -12 -14 0 -15 -2 -3 -6 8 -3 19 -11 23
-17 6 -7 7 -4 3 7 -5 14 -1 16 22 11 16 -4 23 -3 19 2 -5 5 -12 9 -15 9 -4 0
-13 4 -19 8 -8 5 -13 4 -13 -2z"/>
<path d="M2955 1611 c-3 -5 -2 -12 3 -15 5 -3 9 1 9 9 0 17 -3 19 -12 6z"/>
<path d="M3065 1559 c-4 -6 -5 -12 -2 -15 2 -3 7 2 10 11 7 17 1 20 -8 4z"/>
<path d="M1558 1553 c6 -2 12 -11 12 -18 0 -7 -6 -15 -12 -18 -7 -2 -1 -4 14
-3 20 1 24 4 16 14 -6 6 -7 12 -2 12 5 0 2 5 -6 10 -8 5 -19 9 -25 9 -5 0 -4
-3 3 -6z"/>
<path d="M3080 1543 c0 -6 4 -14 10 -18 5 -3 8 -11 6 -18 -1 -7 -1 -9 1 -4 3
4 11 7 19 7 9 0 12 5 9 10 -4 6 -10 8 -15 5 -5 -3 -13 3 -19 12 -6 10 -11 13
-11 6z"/>
<path d="M996 1523 c-6 -14 -5 -15 5 -6 7 7 10 15 7 18 -3 3 -9 -2 -12 -12z"/>
<path d="M1026 1485 c-11 -8 -15 -15 -10 -15 5 0 10 -9 11 -20 1 -11 -1 -19
-5 -16 -4 2 -8 -7 -8 -20 -1 -13 1 -24 5 -24 8 0 10 7 14 55 1 17 6 36 10 43
10 15 7 15 -17 -3z"/>
<path d="M3143 1473 c-7 -3 -13 -8 -13 -13 0 -10 24 -7 28 4 5 11 -1 14 -15 9z"/>
<path d="M990 1460 c0 -5 5 -10 11 -10 5 0 7 5 4 10 -3 6 -8 10 -11 10 -2 0
-4 -4 -4 -10z"/>
<path d="M1550 1459 c0 -5 5 -7 10 -4 6 3 10 8 10 11 0 2 -4 4 -10 4 -5 0 -10
-5 -10 -11z"/>
<path d="M3439 1468 c-6 -12 -4 -48 2 -48 5 0 9 5 9 11 0 5 5 7 12 3 7 -4 8
-3 4 5 -4 6 -12 8 -18 5 -7 -5 -9 -1 -5 9 5 13 1 25 -4 15z"/>
<path d="M1560 1420 c0 -5 5 -10 10 -10 6 0 10 5 10 10 0 6 -4 10 -10 10 -5 0
-10 -4 -10 -10z"/>
<path d="M1850 1400 c0 -5 5 -10 11 -10 5 0 7 5 4 10 -3 6 -8 10 -11 10 -2 0
-4 -4 -4 -10z"/>
<path d="M3445 1400 c-3 -5 -1 -10 4 -10 6 0 11 5 11 10 0 6 -2 10 -4 10 -3 0
-8 -4 -11 -10z"/>
<path d="M3475 1389 c-4 -6 -5 -12 -2 -15 2 -3 7 2 10 11 7 17 1 20 -8 4z"/>
<path d="M996 1372 c-2 -4 4 -8 14 -8 10 0 16 4 14 8 -3 4 -9 8 -14 8 -5 0
-11 -4 -14 -8z"/>
<path d="M1258 1363 c7 -3 16 -2 19 1 4 3 -2 6 -13 5 -11 0 -14 -3 -6 -6z"/>
<path d="M1823 1330 c2 -13 9 -26 15 -28 16 -5 14 9 -4 33 -14 19 -14 19 -11
-5z"/>
<path d="M1562 1297 c10 -8 14 -18 10 -23 -4 -4 1 -2 11 5 9 7 17 19 16 25 0
7 -2 6 -6 -1 -3 -10 -10 -10 -26 -2 -20 9 -20 9 -5 -4z"/>
<path d="M1850 1280 c0 -5 5 -10 11 -10 5 0 7 5 4 10 -3 6 -8 10 -11 10 -2 0
-4 -4 -4 -10z"/>
<path d="M3210 1260 c0 -5 5 -10 11 -10 5 0 7 5 4 10 -3 6 -8 10 -11 10 -2 0
-4 -4 -4 -10z"/>
<path d="M1570 1246 c14 -18 13 -19 -5 -13 -17 6 -18 5 -5 -6 22 -18 25 -41 4
-33 -14 5 -15 4 -5 -8 9 -11 9 -15 -1 -19 -9 -4 -9 -6 -1 -6 28 -2 40 71 14
91 -15 12 -15 11 -1 -6z"/>
<path d="M995 1200 c-3 -5 -1 -10 4 -10 6 0 11 5 11 10 0 6 -2 10 -4 10 -3 0
-8 -4 -11 -10z"/>
<path d="M1850 1160 c0 -5 5 -10 11 -10 5 0 7 5 4 10 -3 6 -8 10 -11 10 -2 0
-4 -4 -4 -10z"/>
<path d="M3214 1151 c0 -11 3 -18 7 -15 4 2 9 -2 12 -8 2 -7 7 -11 10 -8 3 3
-2 16 -12 28 -16 21 -17 22 -17 3z"/>
<path d="M1270 1081 c0 -7 -4 -10 -8 -7 -4 2 -8 -4 -8 -15 0 -10 3 -19 7 -19
8 0 20 42 14 49 -3 2 -5 -1 -5 -8z"/>
<path d="M3228 1083 c7 -3 16 -2 19 1 4 3 -2 6 -13 5 -11 0 -14 -3 -6 -6z"/>
<path d="M1829 1056 c-1 -3 -2 -9 -3 -13 -1 -5 -5 -13 -9 -20 -4 -6 -3 -14 2
-17 5 -3 7 -22 5 -41 -1 -19 2 -35 7 -35 6 0 7 5 4 10 -3 6 0 10 7 10 10 0 10
2 -1 9 -11 7 -11 9 0 14 11 4 12 7 2 18 -7 7 -13 20 -13 29 1 12 4 11 15 -4
13 -17 15 -18 15 -3 0 9 -5 17 -11 17 -5 0 -8 4 -4 9 3 5 1 12 -5 16 -5 3 -11
4 -11 1z"/>
<path d="M986 1019 c3 -6 8 -8 11 -5 3 3 15 0 27 -6 16 -8 18 -8 10 1 -14 15
-57 24 -48 10z"/>
<path d="M3209 1009 l-24 -20 28 17 c15 9 27 18 27 20 0 8 -8 4 -31 -17z"/>
<path d="M986 982 c-3 -5 1 -9 9 -9 8 0 12 4 9 9 -3 4 -7 8 -9 8 -2 0 -6 -4
-9 -8z"/>
<path d="M3467 959 c7 -7 15 -10 18 -7 3 3 -2 9 -12 12 -14 6 -15 5 -6 -5z"/>
<path d="M1850 920 c0 -5 5 -10 11 -10 5 0 7 5 4 10 -3 6 -8 10 -11 10 -2 0
-4 -4 -4 -10z"/>
<path d="M3146 902 c-3 -5 1 -9 9 -9 8 0 15 4 15 9 0 4 -4 8 -9 8 -6 0 -12 -4
-15 -8z"/>
<path d="M995 891 c-3 -5 0 -13 6 -17 8 -5 9 -3 4 6 -6 10 -4 12 9 7 10 -4 15
-3 11 3 -8 13 -22 13 -30 1z"/>
<path d="M3143 845 c0 -8 4 -12 9 -9 5 3 6 10 3 15 -9 13 -12 11 -12 -6z"/>
<path d="M1846 798 c3 -5 10 -6 15 -3 13 9 11 12 -6 12 -8 0 -12 -4 -9 -9z"/>
<path d="M1270 786 c0 -2 7 -7 16 -10 8 -3 12 -2 9 4 -6 10 -25 14 -25 6z"/>
<path d="M1829 783 c-7 -52 -4 -80 8 -76 15 6 17 16 6 27 -11 11 -10 30 0 37
5 4 4 10 -2 13 -6 4 -11 4 -12 -1z"/>
<path d="M1270 760 c0 -6 -4 -9 -8 -6 -4 2 -8 -4 -8 -15 0 -10 4 -19 8 -19 4
0 8 6 8 14 0 8 5 16 12 18 9 3 9 6 0 12 -7 4 -12 2 -12 -4z"/>
<path d="M3365 740 c-3 -6 1 -7 9 -4 18 7 21 14 7 14 -6 0 -13 -4 -16 -10z"/>
<path d="M3376 713 c-6 -14 -5 -15 5 -6 7 7 10 15 7 18 -3 3 -9 -2 -12 -12z"/>
<path d="M1554 709 c-7 -11 14 -39 29 -39 6 0 7 3 4 7 -4 3 -2 12 4 20 6 7 10
13 8 14 -31 6 -40 6 -45 -2z m30 -11 c-3 -4 -9 -8 -15 -8 -5 0 -9 4 -9 8 0 5
7 9 15 9 8 0 12 -4 9 -9z"/>
<path d="M984 698 c-4 -7 -3 -8 4 -4 6 4 22 2 34 -4 22 -11 22 -10 4 4 -24 19
-32 20 -42 4z"/>
<path d="M3290 667 c-14 -12 -32 -31 -40 -42 -10 -14 -10 -17 -1 -8 7 6 20 9
27 6 8 -3 14 0 14 7 0 6 -5 8 -12 4 -7 -4 -8 -3 -4 5 6 9 12 9 24 -1 10 -7 14
-8 9 -3 -4 4 0 16 9 26 23 26 3 30 -26 6z m30 9 c0 -2 -8 -10 -17 -17 -16 -13
-17 -12 -4 4 13 16 21 21 21 13z"/>
<path d="M2195 671 c-3 -5 -2 -12 3 -15 5 -3 9 1 9 9 0 17 -3 19 -12 6z"/>
<path d="M2355 671 c-3 -5 -2 -12 3 -15 5 -3 9 1 9 9 0 17 -3 19 -12 6z"/>
<path d="M2515 671 c-3 -5 -2 -12 3 -15 5 -3 9 1 9 9 0 17 -3 19 -12 6z"/>
<path d="M990 660 c0 -5 5 -10 11 -10 5 0 7 5 4 10 -3 6 -8 10 -11 10 -2 0 -4
-4 -4 -10z"/>
<path d="M1921 628 c5 -10 11 -18 12 -18 2 0 3 8 3 18 0 10 -6 19 -13 19 -8 0
-9 -6 -2 -19z"/>
<path d="M2706 638 c3 -5 10 -6 15 -3 13 9 11 12 -6 12 -8 0 -12 -4 -9 -9z"/>
<path d="M1950 625 c0 -8 4 -15 10 -15 5 0 7 7 4 15 -4 8 -8 15 -10 15 -2 0
-4 -7 -4 -15z"/>
<path d="M1978 633 c6 -3 10 -8 8 -12 -3 -4 1 -8 8 -8 22 0 14 23 -8 24 -12 1
-15 -1 -8 -4z"/>
<path d="M2056 627 c3 -10 9 -15 12 -12 3 3 0 11 -7 18 -10 9 -11 8 -5 -6z"/>
<path d="M2096 627 c3 -10 9 -15 12 -12 3 3 0 11 -7 18 -10 9 -11 8 -5 -6z"/>
<path d="M2141 624 c0 -11 3 -14 6 -6 3 7 2 16 -1 19 -3 4 -6 -2 -5 -13z"/>
<path d="M2216 627 c3 -10 9 -15 12 -12 3 3 0 11 -7 18 -10 9 -11 8 -5 -6z"/>
<path d="M2256 627 c3 -10 9 -15 12 -12 3 3 0 11 -7 18 -10 9 -11 8 -5 -6z"/>
<path d="M2301 624 c0 -11 3 -14 6 -6 3 7 2 16 -1 19 -3 4 -6 -2 -5 -13z"/>
<path d="M2376 627 c3 -10 9 -15 12 -12 3 3 0 11 -7 18 -10 9 -11 8 -5 -6z"/>
<path d="M2461 624 c0 -11 3 -14 6 -6 3 7 2 16 -1 19 -3 4 -6 -2 -5 -13z"/>
<path d="M2536 627 c3 -10 9 -15 12 -12 3 3 0 11 -7 18 -10 9 -11 8 -5 -6z"/>
<path d="M2621 624 c0 -11 3 -14 6 -6 3 7 2 16 -1 19 -3 4 -6 -2 -5 -13z"/>
<path d="M2647 627 c-3 -8 1 -14 8 -14 7 0 11 6 8 14 -3 7 -6 13 -8 13 -2 0
-5 -6 -8 -13z"/>
<path d="M2020 622 c0 -5 7 -9 15 -9 8 0 12 4 9 9 -3 4 -9 8 -15 8 -5 0 -9 -4
-9 -8z"/>
<path d="M2180 622 c0 -5 7 -9 15 -9 8 0 12 4 9 9 -3 4 -9 8 -15 8 -5 0 -9 -4
-9 -8z"/>
<path d="M2340 622 c0 -5 7 -9 15 -9 8 0 12 4 9 9 -3 4 -9 8 -15 8 -5 0 -9 -4
-9 -8z"/>
<path d="M2406 622 c-3 -5 1 -9 9 -9 8 0 15 4 15 9 0 4 -4 8 -9 8 -6 0 -12 -4
-15 -8z"/>
<path d="M2500 622 c0 -5 7 -9 15 -9 8 0 12 4 9 9 -3 4 -9 8 -15 8 -5 0 -9 -4
-9 -8z"/>
<path d="M1280 580 c-9 -6 -10 -10 -3 -10 6 0 15 5 18 10 8 12 4 12 -15 0z"/>
<path d="M1245 560 c-3 -5 -1 -10 5 -10 6 0 9 -4 5 -9 -3 -5 -2 -12 3 -15 4
-2 8 4 9 14 2 22 -13 35 -22 20z"/>
<path d="M3190 509 c0 -5 5 -7 10 -4 6 3 10 8 10 11 0 2 -4 4 -10 4 -5 0 -10
-5 -10 -11z"/>
<path d="M1270 479 c0 -5 5 -7 10 -4 6 3 10 8 10 11 0 2 -4 4 -10 4 -5 0 -10
-5 -10 -11z"/>
<path d="M1610 449 c0 -5 -4 -8 -8 -5 -4 2 -14 0 -22 -5 -12 -8 -11 -9 4 -7
10 2 21 -3 24 -11 2 -8 0 -11 -5 -8 -5 3 -10 0 -10 -8 0 -11 4 -12 13 -4 19
16 48 -29 31 -50 -11 -14 -10 -14 6 -2 14 11 17 11 17 0 0 -11 2 -11 9 -1 6
10 10 10 21 -3 14 -16 45 -21 35 -5 -4 6 -10 8 -15 5 -4 -3 -13 2 -20 10 -7 8
-16 13 -20 10 -9 -5 -46 45 -42 58 1 4 -3 7 -9 7 -8 0 -8 5 1 15 9 10 9 15 1
15 -6 0 -11 -5 -11 -11z"/>
<path d="M1606 382 c-3 -5 1 -9 9 -9 8 0 12 4 9 9 -3 4 -7 8 -9 8 -2 0 -6 -4
-9 -8z"/>
<path d="M2996 373 c-6 -14 -5 -15 5 -6 7 7 10 15 7 18 -3 3 -9 -2 -12 -12z"/>
<path d="M1068 363 c10 -4 10 -8 0 -21 -12 -15 -11 -16 4 -3 19 14 15 32 -5
30 -8 0 -8 -2 1 -6z"/>
<path d="M2224 337 c2 -15 0 -27 -5 -27 -5 0 -9 -4 -9 -8 0 -5 7 -9 15 -9 8 0
12 4 9 9 -3 4 2 8 10 8 22 0 20 13 -5 36 -20 18 -20 18 -15 -9z"/>
<path d="M2785 342 c3 -3 0 -11 -6 -19 -6 -7 -7 -13 -3 -13 5 0 14 8 21 18 9
15 8 19 -3 19 -8 0 -12 -3 -9 -5z"/>
<path d="M2559 340 c-6 -26 -4 -58 3 -54 4 3 6 9 3 14 -3 4 1 10 7 13 10 4 11
7 1 18 -7 7 -13 11 -14 9z"/>
<path d="M1135 320 c3 -5 8 -10 11 -10 2 0 4 5 4 10 0 6 -5 10 -11 10 -5 0 -7
-4 -4 -10z"/>
<path d="M1675 320 c3 -5 8 -10 11 -10 2 0 4 5 4 10 0 6 -5 10 -11 10 -5 0 -7
-4 -4 -10z"/>
<path d="M2155 319 c-4 -6 -4 -13 -1 -17 10 -9 46 -10 40 0 -4 5 -13 7 -21 4
-11 -4 -13 -2 -9 9 6 17 0 20 -9 4z"/>
<path d="M2273 317 c0 -7 9 -13 19 -13 10 0 18 1 18 3 0 1 -8 7 -18 12 -13 7
-19 6 -19 -2z"/>
<path d="M2593 308 c-1 -11 1 -16 5 -12 4 5 11 12 15 15 5 3 2 9 -5 12 -9 3
-14 -3 -15 -15z"/>
<path d="M2353 301 c0 -11 5 -18 9 -15 4 3 5 11 1 19 -7 21 -12 19 -10 -4z"/>
<path d="M1795 301 c-3 -5 0 -13 6 -17 7 -4 9 -3 5 4 -3 5 0 13 6 15 9 4 10 6
1 6 -6 1 -14 -3 -18 -8z"/>
<path d="M1966 302 c-3 -5 1 -9 9 -9 8 0 15 4 15 9 0 4 -4 8 -9 8 -6 0 -12 -4
-15 -8z"/>
<path d="M2239 273 c-13 -16 -12 -17 4 -4 16 13 21 21 13 21 -2 0 -10 -8 -17
-17z"/>
<path d="M2516 278 c3 -5 10 -6 15 -3 13 9 11 12 -6 12 -8 0 -12 -4 -9 -9z"/>
</g>
</svg>
